# node obj {x=0, y=0, z=0}
o node_0_0_0

v 0.375 0.5 -0.5
v 0.375 0.5 -0.3125
v 0.4375 0.5 -0.3125
v 0.4375 0.5 -0.5
v -0.4375 0.5 -0.5
v -0.4375 0.5 -0.3125
v -0.375 0.5 -0.3125
v -0.375 0.5 -0.5
v -0.3125 -0.375 -0.4375
v -0.3125 -0.375 -0.375
v 0.3125 -0.375 -0.375
v 0.3125 -0.375 -0.4375
v 0.4375 0.5 -0.4375
v 0.4375 0.5 -0.375
v 0.5 0.5 -0.375
v 0.5 0.5 -0.4375
v 0.3125 0.5 -0.4375
v 0.3125 0.5 -0.375
v 0.375 0.5 -0.375
v 0.375 0.5 -0.4375
v -0.375 0.5 -0.4375
v -0.375 0.5 -0.375
v -0.3125 0.5 -0.375
v -0.3125 0.5 -0.4375
v -0.5 0.5 -0.4375
v -0.5 0.5 -0.375
v -0.4375 0.5 -0.375
v -0.4375 0.5 -0.4375
v 0.4375 -0.3125 -0.375
v 0.4375 -0.3125 -0.3125
v 0.5 -0.3125 -0.3125
v 0.5 -0.3125 -0.375
v -0.375 -0.3125 -0.375
v -0.375 -0.3125 -0.3125
v 0.375 -0.3125 -0.3125
v 0.375 -0.3125 -0.375
v -0.5 -0.3125 -0.375
v -0.5 -0.3125 -0.3125
v -0.4375 -0.3125 -0.3125
v -0.4375 -0.3125 -0.375
v -0.5 -0.375 -0.3125
v -0.5 -0.375 -0.25
v 0.5 -0.375 -0.25
v 0.5 -0.375 -0.3125
v -0.5 -0.375 0.25
v -0.5 -0.375 0.3125
v 0.5 -0.375 0.3125
v 0.5 -0.375 0.25
v 0.4375 -0.3125 0.3125
v 0.4375 -0.3125 0.375
v 0.5 -0.3125 0.375
v 0.5 -0.3125 0.3125
v -0.375 -0.3125 0.3125
v -0.375 -0.3125 0.375
v 0.375 -0.3125 0.375
v 0.375 -0.3125 0.3125
v -0.5 -0.3125 0.3125
v -0.5 -0.3125 0.375
v -0.4375 -0.3125 0.375
v -0.4375 -0.3125 0.3125
v 0.4375 0.0 0.3125
v 0.4375 0.0 0.375
v 0.5 0.0 0.375
v 0.5 0.0 0.3125
v -0.375 0.0 0.3125
v -0.375 0.0 0.375
v 0.375 0.0 0.375
v 0.375 0.0 0.3125
v -0.5 0.0 0.3125
v -0.5 0.0 0.375
v -0.4375 0.0 0.375
v -0.4375 0.0 0.3125
v 0.4375 0.3125 0.3125
v 0.4375 0.3125 0.375
v 0.5 0.3125 0.375
v 0.5 0.3125 0.3125
v -0.375 0.3125 0.3125
v -0.375 0.3125 0.375
v 0.375 0.3125 0.375
v 0.375 0.3125 0.3125
v -0.5 0.3125 0.3125
v -0.5 0.3125 0.375
v -0.4375 0.3125 0.375
v -0.4375 0.3125 0.3125
v 0.375 0.5 0.3125
v 0.375 0.5 0.5
v 0.4375 0.5 0.5
v 0.4375 0.5 0.3125
v -0.4375 0.5 0.3125
v -0.4375 0.5 0.5
v -0.375 0.5 0.5
v -0.375 0.5 0.3125
v -0.3125 -0.375 0.375
v -0.3125 -0.375 0.4375
v 0.3125 -0.375 0.4375
v 0.3125 -0.375 0.375
v 0.4375 0.5 0.375
v 0.4375 0.5 0.4375
v 0.5 0.5 0.4375
v 0.5 0.5 0.375
v 0.3125 0.5 0.375
v 0.3125 0.5 0.4375
v 0.375 0.5 0.4375
v 0.375 0.5 0.375
v -0.375 0.5 0.375
v -0.375 0.5 0.4375
v -0.3125 0.5 0.4375
v -0.3125 0.5 0.375
v -0.5 0.5 0.375
v -0.5 0.5 0.4375
v -0.4375 0.5 0.4375
v -0.4375 0.5 0.375
v 0.375 -0.5 -0.5
v 0.375 -0.5 -0.375
v 0.4375 -0.5 -0.375
v 0.4375 -0.5 -0.5
v -0.4375 -0.5 -0.5
v -0.4375 -0.5 -0.375
v -0.375 -0.5 -0.375
v -0.375 -0.5 -0.5
v 0.4375 -0.5 -0.4375
v 0.5 -0.5 -0.375
v 0.5 -0.5 -0.4375
v 0.3125 -0.5 -0.4375
v 0.3125 -0.5 -0.375
v 0.375 -0.5 -0.4375
v -0.375 -0.5 -0.4375
v -0.3125 -0.5 -0.375
v -0.3125 -0.5 -0.4375
v -0.5 -0.5 -0.4375
v -0.5 -0.5 -0.375
v -0.4375 -0.5 -0.4375
v -0.3125 -0.4375 -0.4375
v -0.3125 -0.4375 -0.375
v 0.3125 -0.4375 -0.375
v 0.3125 -0.4375 -0.4375
v -0.5 -0.5 -0.3125
v 0.5 -0.5 -0.3125
v -0.5 -0.4375 -0.3125
v -0.5 -0.4375 -0.25
v 0.5 -0.4375 -0.25
v 0.5 -0.4375 -0.3125
v -0.5 -0.4375 0.25
v -0.5 -0.4375 0.3125
v 0.5 -0.4375 0.3125
v 0.5 -0.4375 0.25
v -0.5 -0.5 0.3125
v -0.5 -0.5 0.375
v 0.5 -0.5 0.375
v 0.5 -0.5 0.3125
v 0.4375 -0.1875 0.3125
v 0.4375 -0.1875 0.375
v 0.5 -0.1875 0.375
v 0.5 -0.1875 0.3125
v -0.375 -0.1875 0.3125
v -0.375 -0.1875 0.375
v 0.375 -0.1875 0.375
v 0.375 -0.1875 0.3125
v -0.5 -0.1875 0.3125
v -0.5 -0.1875 0.375
v -0.4375 -0.1875 0.375
v -0.4375 -0.1875 0.3125
v 0.4375 0.125 0.3125
v 0.4375 0.125 0.375
v 0.5 0.125 0.375
v 0.5 0.125 0.3125
v -0.375 0.125 0.3125
v -0.375 0.125 0.375
v 0.375 0.125 0.375
v 0.375 0.125 0.3125
v -0.5 0.125 0.3125
v -0.5 0.125 0.375
v -0.4375 0.125 0.375
v -0.4375 0.125 0.3125
v 0.3125 -0.5 0.375
v 0.3125 -0.5 0.4375
v 0.5 -0.5 0.4375
v -0.5 -0.5 0.4375
v -0.3125 -0.5 0.4375
v -0.3125 -0.5 0.375
v -0.3125 -0.4375 0.375
v -0.3125 -0.4375 0.4375
v 0.3125 -0.4375 0.4375
v 0.3125 -0.4375 0.375
v 0.375 -0.5 0.4375
v 0.375 -0.5 0.5
v 0.4375 -0.5 0.5
v 0.4375 -0.5 0.4375
v -0.4375 -0.5 0.4375
v -0.4375 -0.5 0.5
v -0.375 -0.5 0.5
v -0.375 -0.5 0.4375
v -0.5 -0.4375 0.375
v -0.5 -0.375 0.375
v 0.5 -0.4375 0.375
v 0.5 -0.375 0.375
v -0.3125 -0.3125 -0.375
v 0.3125 -0.3125 -0.375
v 0.3125 -0.3125 0.375
v 0.3125 -0.1875 0.375
v -0.3125 -0.1875 0.375
v -0.3125 -0.3125 0.375
v 0.3125 0.0 0.375
v 0.3125 0.125 0.375
v -0.3125 0.125 0.375
v -0.3125 0.0 0.375
v 0.3125 0.3125 0.375
v -0.3125 0.3125 0.375

vt 0.875 0.0
vt 0.875 0.1875
vt 0.9375 0.1875
vt 0.9375 0.0
vt 0.0625 0.0
vt 0.0625 0.1875
vt 0.125 0.1875
vt 0.125 0.0
vt 0.1875 0.0625
vt 0.1875 0.125
vt 0.8125 0.125
vt 0.8125 0.0625
vt 0.9375 0.0625
vt 0.9375 0.125
vt 1.0 0.125
vt 1.0 0.0625
vt 0.8125 0.0625
vt 0.8125 0.125
vt 0.875 0.125
vt 0.875 0.0625
vt 0.125 0.0625
vt 0.125 0.125
vt 0.1875 0.125
vt 0.1875 0.0625
vt 0.0 0.0625
vt 0.0 0.125
vt 0.0625 0.125
vt 0.0625 0.0625
vt 0.9375 0.125
vt 0.9375 0.1875
vt 1.0 0.1875
vt 1.0 0.125
vt 0.125 0.125
vt 0.125 0.1875
vt 0.875 0.1875
vt 0.875 0.125
vt 0.0 0.125
vt 0.0 0.1875
vt 0.0625 0.1875
vt 0.0625 0.125
vt 0.0 0.1875
vt 0.0 0.25
vt 1.0 0.25
vt 1.0 0.1875
vt 0.0 0.75
vt 0.0 0.8125
vt 1.0 0.8125
vt 1.0 0.75
vt 0.9375 0.8125
vt 0.9375 0.875
vt 1.0 0.875
vt 1.0 0.8125
vt 0.125 0.8125
vt 0.125 0.875
vt 0.875 0.875
vt 0.875 0.8125
vt 0.0 0.8125
vt 0.0 0.875
vt 0.0625 0.875
vt 0.0625 0.8125
vt 0.9375 0.8125
vt 0.9375 0.875
vt 1.0 0.875
vt 1.0 0.8125
vt 0.125 0.8125
vt 0.125 0.875
vt 0.875 0.875
vt 0.875 0.8125
vt 0.0 0.8125
vt 0.0 0.875
vt 0.0625 0.875
vt 0.0625 0.8125
vt 0.9375 0.8125
vt 0.9375 0.875
vt 1.0 0.875
vt 1.0 0.8125
vt 0.125 0.8125
vt 0.125 0.875
vt 0.875 0.875
vt 0.875 0.8125
vt 0.0 0.8125
vt 0.0 0.875
vt 0.0625 0.875
vt 0.0625 0.8125
vt 0.875 0.8125
vt 0.875 1.0
vt 0.9375 1.0
vt 0.9375 0.8125
vt 0.0625 0.8125
vt 0.0625 1.0
vt 0.125 1.0
vt 0.125 0.8125
vt 0.1875 0.875
vt 0.1875 0.9375
vt 0.8125 0.9375
vt 0.8125 0.875
vt 0.9375 0.875
vt 0.9375 0.9375
vt 1.0 0.9375
vt 1.0 0.875
vt 0.8125 0.875
vt 0.8125 0.9375
vt 0.875 0.9375
vt 0.875 0.875
vt 0.125 0.875
vt 0.125 0.9375
vt 0.1875 0.9375
vt 0.1875 0.875
vt 0.0 0.875
vt 0.0 0.9375
vt 0.0625 0.9375
vt 0.0625 0.875
vt 0.875 0.0
vt 0.875 0.125
vt 0.9375 0.125
vt 0.9375 0.0
vt 0.0625 0.0
vt 0.0625 0.125
vt 0.125 0.125
vt 0.125 0.0
vt 0.9375 0.0625
vt 0.9375 0.125
vt 1.0 0.125
vt 1.0 0.0625
vt 0.8125 0.0625
vt 0.8125 0.125
vt 0.875 0.125
vt 0.875 0.0625
vt 0.125 0.0625
vt 0.125 0.125
vt 0.1875 0.125
vt 0.1875 0.0625
vt 0.0 0.0625
vt 0.0 0.125
vt 0.0625 0.125
vt 0.0625 0.0625
vt 0.1875 0.0625
vt 0.1875 0.125
vt 0.8125 0.125
vt 0.8125 0.0625
vt 0.0 0.125
vt 0.0 0.1875
vt 1.0 0.1875
vt 1.0 0.125
vt 0.0 0.1875
vt 0.0 0.25
vt 1.0 0.25
vt 1.0 0.1875
vt 0.0 0.75
vt 0.0 0.8125
vt 1.0 0.8125
vt 1.0 0.75
vt 0.0 0.8125
vt 0.0 0.875
vt 1.0 0.875
vt 1.0 0.8125
vt 0.9375 0.8125
vt 0.9375 0.875
vt 1.0 0.875
vt 1.0 0.8125
vt 0.125 0.8125
vt 0.125 0.875
vt 0.875 0.875
vt 0.875 0.8125
vt 0.0 0.8125
vt 0.0 0.875
vt 0.0625 0.875
vt 0.0625 0.8125
vt 0.9375 0.8125
vt 0.9375 0.875
vt 1.0 0.875
vt 1.0 0.8125
vt 0.125 0.8125
vt 0.125 0.875
vt 0.875 0.875
vt 0.875 0.8125
vt 0.0 0.8125
vt 0.0 0.875
vt 0.0625 0.875
vt 0.0625 0.8125
vt 0.8125 0.875
vt 0.8125 0.9375
vt 1.0 0.9375
vt 1.0 0.875
vt 0.0 0.875
vt 0.0 0.9375
vt 0.1875 0.9375
vt 0.1875 0.875
vt 0.1875 0.875
vt 0.1875 0.9375
vt 0.8125 0.9375
vt 0.8125 0.875
vt 0.875 0.9375
vt 0.875 1.0
vt 0.9375 1.0
vt 0.9375 0.9375
vt 0.0625 0.9375
vt 0.0625 1.0
vt 0.125 1.0
vt 0.125 0.9375
vt 0.0 0.0
vt 0.0 0.0625
vt 1.0 0.0625
vt 1.0 0.0
vt 0.0 0.0
vt 0.0 0.0625
vt 1.0 0.0625
vt 1.0 0.0
vt 0.0 0.0625
vt 0.0 0.125
vt 0.0625 0.125
vt 0.0625 0.0625
vt 0.0 0.0625
vt 0.0 0.125
vt 1.0 0.125
vt 1.0 0.0625
vt 0.125 0.0625
vt 0.125 0.125
vt 1.0 0.125
vt 1.0 0.0625
vt 0.0 0.125
vt 0.0 0.1875
vt 0.1875 0.1875
vt 0.1875 0.125
vt 0.1875 0.125
vt 0.1875 0.1875
vt 1.0 0.1875
vt 1.0 0.125
vt 0.1875 0.125
vt 0.1875 0.1875
vt 1.0 0.1875
vt 1.0 0.125
vt 0.0625 0.1875
vt 0.0625 0.25
vt 0.125 0.25
vt 0.125 0.1875
vt 0.0625 0.75
vt 0.0625 0.875
vt 0.125 0.875
vt 0.125 0.75
vt 0.0 0.8125
vt 0.0 0.875
vt 0.0625 0.875
vt 0.0625 0.8125
vt 0.125 0.8125
vt 0.125 0.875
vt 0.1875 0.875
vt 0.1875 0.8125
vt 0.1875 0.8125
vt 0.1875 0.875
vt 0.3125 0.875
vt 0.3125 0.8125
vt 0.1875 0.8125
vt 0.1875 0.875
vt 0.3125 0.875
vt 0.3125 0.8125
vt 0.3125 0.8125
vt 0.3125 0.875
vt 0.5 0.875
vt 0.5 0.8125
vt 0.5 0.8125
vt 0.5 0.875
vt 0.625 0.875
vt 0.625 0.8125
vt 0.5 0.8125
vt 0.5 0.875
vt 0.625 0.875
vt 0.625 0.8125
vt 0.625 0.8125
vt 0.625 0.875
vt 0.8125 0.875
vt 0.8125 0.8125
vt 0.8125 0.8125
vt 0.8125 0.875
vt 1.0 0.875
vt 1.0 0.8125
vt 0.8125 0.8125
vt 0.8125 0.875
vt 1.0 0.875
vt 1.0 0.8125
vt 0.0 0.875
vt 0.0 0.9375
vt 0.0625 0.9375
vt 0.0625 0.875
vt 0.0 0.875
vt 0.0 0.9375
vt 1.0 0.9375
vt 1.0 0.875
vt 0.125 0.875
vt 0.125 0.9375
vt 1.0 0.9375
vt 1.0 0.875
vt 0.0 0.9375
vt 0.0 1.0
vt 1.0 1.0
vt 1.0 0.9375
vt 0.0 0.9375
vt 0.0 1.0
vt 1.0 1.0
vt 1.0 0.9375
vt 0.0 0.0
vt 0.0 0.0625
vt 1.0 0.0625
vt 1.0 0.0
vt 0.0 0.0
vt 0.0 0.0625
vt 1.0 0.0625
vt 1.0 0.0
vt 0.0 0.0625
vt 0.0 0.125
vt 1.0 0.125
vt 1.0 0.0625
vt 0.0 0.0625
vt 0.0 0.125
vt 0.0625 0.125
vt 0.0625 0.0625
vt 0.125 0.0625
vt 0.125 0.125
vt 1.0 0.125
vt 1.0 0.0625
vt 0.0 0.125
vt 0.0 0.1875
vt 0.1875 0.1875
vt 0.1875 0.125
vt 0.1875 0.125
vt 0.1875 0.1875
vt 1.0 0.1875
vt 1.0 0.125
vt 0.1875 0.125
vt 0.1875 0.1875
vt 1.0 0.1875
vt 1.0 0.125
vt 0.0625 0.1875
vt 0.0625 0.25
vt 0.125 0.25
vt 0.125 0.1875
vt 0.0625 0.75
vt 0.0625 0.875
vt 0.125 0.875
vt 0.125 0.75
vt 0.0 0.8125
vt 0.0 0.875
vt 0.0625 0.875
vt 0.0625 0.8125
vt 0.125 0.8125
vt 0.125 0.875
vt 0.1875 0.875
vt 0.1875 0.8125
vt 0.1875 0.8125
vt 0.1875 0.875
vt 0.3125 0.875
vt 0.3125 0.8125
vt 0.1875 0.8125
vt 0.1875 0.875
vt 0.3125 0.875
vt 0.3125 0.8125
vt 0.3125 0.8125
vt 0.3125 0.875
vt 0.5 0.875
vt 0.5 0.8125
vt 0.5 0.8125
vt 0.5 0.875
vt 0.625 0.875
vt 0.625 0.8125
vt 0.5 0.8125
vt 0.5 0.875
vt 0.625 0.875
vt 0.625 0.8125
vt 0.625 0.8125
vt 0.625 0.875
vt 0.8125 0.875
vt 0.8125 0.8125
vt 0.8125 0.8125
vt 0.8125 0.875
vt 1.0 0.875
vt 1.0 0.8125
vt 0.8125 0.8125
vt 0.8125 0.875
vt 1.0 0.875
vt 1.0 0.8125
vt 0.0 0.875
vt 0.0 0.9375
vt 1.0 0.9375
vt 1.0 0.875
vt 0.0 0.875
vt 0.0 0.9375
vt 0.0625 0.9375
vt 0.0625 0.875
vt 0.125 0.875
vt 0.125 0.9375
vt 1.0 0.9375
vt 1.0 0.875
vt 0.0 0.9375
vt 0.0 1.0
vt 1.0 1.0
vt 1.0 0.9375
vt 0.0 0.9375
vt 0.0 1.0
vt 1.0 1.0
vt 1.0 0.9375
vt 0.875 0.0
vt 0.875 1.0
vt 0.9375 1.0
vt 0.9375 0.0
vt 0.0625 0.0
vt 0.0625 1.0
vt 0.125 1.0
vt 0.125 0.0
vt 0.9375 0.0
vt 0.9375 1.0
vt 1.0 1.0
vt 1.0 0.0
vt 0.8125 0.0
vt 0.8125 1.0
vt 0.875 1.0
vt 0.875 0.0
vt 0.125 0.0
vt 0.125 1.0
vt 0.1875 1.0
vt 0.1875 0.0
vt 0.0 0.0
vt 0.0 1.0
vt 0.0625 1.0
vt 0.0625 0.0
vt 0.1875 0.0625
vt 0.1875 0.125
vt 0.8125 0.125
vt 0.8125 0.0625
vt 0.1875 0.0
vt 0.1875 0.0625
vt 0.8125 0.0625
vt 0.8125 0.0
vt 0.1875 0.125
vt 0.1875 0.1875
vt 0.8125 0.1875
vt 0.8125 0.125
vt 0.0 0.0625
vt 0.0 0.125
vt 1.0 0.125
vt 1.0 0.0625
vt 0.0 0.0
vt 0.0 0.0625
vt 1.0 0.0625
vt 1.0 0.0
vt 0.0 0.125
vt 0.0 0.1875
vt 1.0 0.1875
vt 1.0 0.125
vt 0.875 0.1875
vt 0.875 0.3125
vt 0.9375 0.3125
vt 0.9375 0.1875
vt 0.0625 0.1875
vt 0.0625 0.3125
vt 0.125 0.3125
vt 0.125 0.1875
vt 0.0 0.3125
vt 0.0 0.5
vt 1.0 0.5
vt 1.0 0.3125
vt 0.875 0.5
vt 0.875 0.625
vt 0.9375 0.625
vt 0.9375 0.5
vt 0.0625 0.5
vt 0.0625 0.625
vt 0.125 0.625
vt 0.125 0.5
vt 0.0 0.625
vt 0.0 0.8125
vt 1.0 0.8125
vt 1.0 0.625
vt 0.875 0.8125
vt 0.875 1.0
vt 0.9375 1.0
vt 0.9375 0.8125
vt 0.0625 0.8125
vt 0.0625 1.0
vt 0.125 1.0
vt 0.125 0.8125
vt 0.9375 0.1875
vt 0.9375 0.3125
vt 1.0 0.3125
vt 1.0 0.1875
vt 0.8125 0.1875
vt 0.8125 0.3125
vt 0.875 0.3125
vt 0.875 0.1875
vt 0.125 0.1875
vt 0.125 0.3125
vt 0.1875 0.3125
vt 0.1875 0.1875
vt 0.0 0.1875
vt 0.0 0.3125
vt 0.0625 0.3125
vt 0.0625 0.1875
vt 0.9375 0.5
vt 0.9375 0.625
vt 1.0 0.625
vt 1.0 0.5
vt 0.8125 0.5
vt 0.8125 0.625
vt 0.875 0.625
vt 0.875 0.5
vt 0.125 0.5
vt 0.125 0.625
vt 0.1875 0.625
vt 0.1875 0.5
vt 0.0 0.5
vt 0.0 0.625
vt 0.0625 0.625
vt 0.0625 0.5
vt 0.9375 0.8125
vt 0.9375 1.0
vt 1.0 1.0
vt 1.0 0.8125
vt 0.8125 0.8125
vt 0.8125 1.0
vt 0.875 1.0
vt 0.875 0.8125
vt 0.125 0.8125
vt 0.125 1.0
vt 0.1875 1.0
vt 0.1875 0.8125
vt 0.0 0.8125
vt 0.0 1.0
vt 0.0625 1.0
vt 0.0625 0.8125
vt 0.9375 0.1875
vt 0.9375 1.0
vt 1.0 1.0
vt 1.0 0.1875
vt 0.8125 0.1875
vt 0.8125 1.0
vt 0.875 1.0
vt 0.875 0.1875
vt 0.125 0.1875
vt 0.125 1.0
vt 0.1875 1.0
vt 0.1875 0.1875
vt 0.0 0.1875
vt 0.0 1.0
vt 0.0625 1.0
vt 0.0625 0.1875
vt 0.0 0.0
vt 0.0 0.0625
vt 1.0 0.0625
vt 1.0 0.0
vt 0.0 0.125
vt 0.0 0.1875
vt 1.0 0.1875
vt 1.0 0.125
vt 0.875 0.1875
vt 0.875 1.0
vt 0.9375 1.0
vt 0.9375 0.1875
vt 0.0625 0.1875
vt 0.0625 1.0
vt 0.125 1.0
vt 0.125 0.1875
vt 0.0 0.0625
vt 0.0 0.125
vt 1.0 0.125
vt 1.0 0.0625
vt 0.1875 0.0
vt 0.1875 0.0625
vt 0.8125 0.0625
vt 0.8125 0.0
vt 0.1875 0.125
vt 0.1875 0.1875
vt 0.8125 0.1875
vt 0.8125 0.125
vt 0.1875 0.3125
vt 0.1875 0.5
vt 0.8125 0.5
vt 0.8125 0.3125
vt 0.1875 0.625
vt 0.1875 0.8125
vt 0.8125 0.8125
vt 0.8125 0.625
vt 0.9375 0.0
vt 0.9375 1.0
vt 1.0 1.0
vt 1.0 0.0
vt 0.8125 0.0
vt 0.8125 1.0
vt 0.875 1.0
vt 0.875 0.0
vt 0.125 0.0
vt 0.125 1.0
vt 0.1875 1.0
vt 0.1875 0.0
vt 0.0 0.0
vt 0.0 1.0
vt 0.0625 1.0
vt 0.0625 0.0
vt 0.1875 0.0625
vt 0.1875 0.125
vt 0.8125 0.125
vt 0.8125 0.0625
vt 0.875 0.0
vt 0.875 1.0
vt 0.9375 1.0
vt 0.9375 0.0
vt 0.0625 0.0
vt 0.0625 1.0
vt 0.125 1.0
vt 0.125 0.0

vn 0 1 0
vn 0 -1 0
vn -1 0 0
vn 1 0 0
vn 0 0 -1
vn 0 0 1

g node_0_0_0
usemtl default:wood
s 1
f 1/1/1 2/2/1 3/3/1 4/4/1
usemtl default:wood
s 2
f 5/5/1 6/6/1 7/7/1 8/8/1
usemtl default:junglewood
s 3
f 9/9/1 10/10/1 11/11/1 12/12/1
usemtl default:wood
s 4
f 13/13/1 14/14/1 15/15/1 16/16/1
usemtl default:wood
s 5
f 17/17/1 18/18/1 19/19/1 20/20/1
usemtl default:wood
s 6
f 21/21/1 22/22/1 23/23/1 24/24/1
usemtl default:wood
s 7
f 25/25/1 26/26/1 27/27/1 28/28/1
usemtl default:junglewood
s 8
f 29/29/1 30/30/1 31/31/1 32/32/1
usemtl default:junglewood
s 9
f 33/33/1 34/34/1 35/35/1 36/36/1
usemtl default:junglewood
s 10
f 37/37/1 38/38/1 39/39/1 40/40/1
usemtl default:junglewood
s 11
f 41/41/1 42/42/1 43/43/1 44/44/1
usemtl default:junglewood
s 12
f 45/45/1 46/46/1 47/47/1 48/48/1
usemtl default:junglewood
s 13
f 49/49/1 50/50/1 51/51/1 52/52/1
usemtl default:junglewood
s 14
f 53/53/1 54/54/1 55/55/1 56/56/1
usemtl default:junglewood
s 15
f 57/57/1 58/58/1 59/59/1 60/60/1
usemtl default:junglewood
s 16
f 61/61/1 62/62/1 63/63/1 64/64/1
usemtl default:junglewood
s 17
f 65/65/1 66/66/1 67/67/1 68/68/1
usemtl default:junglewood
s 18
f 69/69/1 70/70/1 71/71/1 72/72/1
usemtl default:junglewood
s 19
f 73/73/1 74/74/1 75/75/1 76/76/1
usemtl default:junglewood
s 20
f 77/77/1 78/78/1 79/79/1 80/80/1
usemtl default:junglewood
s 21
f 81/81/1 82/82/1 83/83/1 84/84/1
usemtl default:wood
s 22
f 85/85/1 86/86/1 87/87/1 88/88/1
usemtl default:wood
s 23
f 89/89/1 90/90/1 91/91/1 92/92/1
usemtl default:junglewood
s 24
f 93/93/1 94/94/1 95/95/1 96/96/1
usemtl default:wood
s 25
f 97/97/1 98/98/1 99/99/1 100/100/1
usemtl default:wood
s 26
f 101/101/1 102/102/1 103/103/1 104/104/1
usemtl default:wood
s 27
f 105/105/1 106/106/1 107/107/1 108/108/1
usemtl default:wood
s 28
f 109/109/1 110/110/1 111/111/1 112/112/1
usemtl default:wood
s 29
f 116/116/2 115/115/2 114/114/2 113/113/2
usemtl default:wood
s 30
f 120/120/2 119/119/2 118/118/2 117/117/2
usemtl default:wood
s 31
f 123/124/2 122/123/2 115/122/2 121/121/2
usemtl default:wood
s 32
f 126/128/2 114/127/2 125/126/2 124/125/2
usemtl default:wood
s 33
f 129/132/2 128/131/2 119/130/2 127/129/2
usemtl default:wood
s 34
f 132/136/2 118/135/2 131/134/2 130/133/2
usemtl default:junglewood
s 35
f 136/140/2 135/139/2 134/138/2 133/137/2
usemtl default:junglewood
s 36
f 122/144/2 138/143/2 137/142/2 131/141/2
usemtl default:junglewood
s 37
f 142/148/2 141/147/2 140/146/2 139/145/2
usemtl default:junglewood
s 38
f 146/152/2 145/151/2 144/150/2 143/149/2
usemtl default:junglewood
s 39
f 150/156/2 149/155/2 148/154/2 147/153/2
usemtl default:junglewood
s 40
f 154/160/2 153/159/2 152/158/2 151/157/2
usemtl default:junglewood
s 41
f 158/164/2 157/163/2 156/162/2 155/161/2
usemtl default:junglewood
s 42
f 162/168/2 161/167/2 160/166/2 159/165/2
usemtl default:junglewood
s 43
f 166/172/2 165/171/2 164/170/2 163/169/2
usemtl default:junglewood
s 44
f 170/176/2 169/175/2 168/174/2 167/173/2
usemtl default:junglewood
s 45
f 174/180/2 173/179/2 172/178/2 171/177/2
usemtl default:wood
s 46
f 149/184/2 177/183/2 176/182/2 175/181/2
usemtl default:wood
s 47
f 180/188/2 179/187/2 178/186/2 148/185/2
usemtl default:junglewood
s 48
f 184/192/2 183/191/2 182/190/2 181/189/2
usemtl default:wood
s 49
f 188/196/2 187/195/2 186/194/2 185/193/2
usemtl default:wood
s 50
f 192/200/2 191/199/2 190/198/2 189/197/2
usemtl default:wood
s 51
f 113/201/3 126/202/3 20/203/3 1/204/3
usemtl default:wood
s 52
f 117/205/3 132/206/3 28/207/3 5/208/3
usemtl default:wood
s 53
f 124/209/3 125/210/3 135/211/3 136/212/3
usemtl default:wood
s 54
f 130/213/3 131/214/3 26/215/3 25/216/3
usemtl default:wood
s 55
f 12/217/3 11/218/3 18/219/3 17/220/3
usemtl default:junglewood
s 56
f 131/221/3 137/222/3 38/223/3 37/224/3
usemtl default:wood
s 57
f 36/225/3 35/226/3 2/227/3 19/228/3
usemtl default:wood
s 58
f 40/229/3 39/230/3 6/231/3 27/232/3
usemtl default:junglewood
s 59
f 139/233/3 140/234/3 42/235/3 41/236/3
usemtl default:junglewood
s 60
f 143/237/3 193/238/3 194/239/3 45/240/3
usemtl default:junglewood
s 61
f 147/241/3 148/242/3 193/243/3 144/244/3
usemtl default:junglewood
s 62
f 46/245/3 194/246/3 58/247/3 57/248/3
usemtl default:wood
s 63
f 56/249/3 55/250/3 157/251/3 158/252/3
usemtl default:wood
s 64
f 60/253/3 59/254/3 161/255/3 162/256/3
usemtl default:junglewood
s 65
f 159/257/3 160/258/3 70/259/3 69/260/3
usemtl default:wood
s 66
f 68/261/3 67/262/3 169/263/3 170/264/3
usemtl default:wood
s 67
f 72/265/3 71/266/3 173/267/3 174/268/3
usemtl default:junglewood
s 68
f 171/269/3 172/270/3 82/271/3 81/272/3
usemtl default:wood
s 69
f 80/273/3 79/274/3 104/275/3 85/276/3
usemtl default:wood
s 70
f 84/277/3 83/278/3 112/279/3 89/280/3
usemtl default:wood
s 71
f 175/281/3 176/282/3 183/283/3 184/284/3
usemtl default:wood
s 72
f 148/285/3 178/286/3 110/287/3 109/288/3
usemtl default:wood
s 73
f 96/289/3 95/290/3 102/291/3 101/292/3
usemtl default:wood
s 74
f 185/293/3 186/294/3 86/295/3 103/296/3
usemtl default:wood
s 75
f 189/297/3 190/298/3 90/299/3 111/300/3
usemtl default:wood
s 76
f 4/304/4 13/303/4 121/302/4 116/301/4
usemtl default:wood
s 77
f 8/308/4 21/307/4 127/306/4 120/305/4
usemtl default:wood
s 78
f 16/312/4 15/311/4 122/310/4 123/309/4
usemtl default:wood
s 79
f 133/316/4 134/315/4 128/314/4 129/313/4
usemtl default:wood
s 80
f 24/320/4 23/319/4 10/318/4 9/317/4
usemtl default:junglewood
s 81
f 32/324/4 31/323/4 138/322/4 122/321/4
usemtl default:wood
s 82
f 14/328/4 3/327/4 30/326/4 29/325/4
usemtl default:wood
s 83
f 22/332/4 7/331/4 34/330/4 33/329/4
usemtl default:junglewood
s 84
f 44/336/4 43/335/4 141/334/4 142/333/4
usemtl default:junglewood
s 85
f 48/340/4 196/339/4 195/338/4 146/337/4
usemtl default:junglewood
s 86
f 145/344/4 195/343/4 149/342/4 150/341/4
usemtl default:junglewood
s 87
f 52/348/4 51/347/4 196/346/4 47/345/4
usemtl default:wood
s 88
f 151/352/4 152/351/4 50/350/4 49/349/4
usemtl default:wood
s 89
f 155/356/4 156/355/4 54/354/4 53/353/4
usemtl default:junglewood
s 90
f 64/360/4 63/359/4 153/358/4 154/357/4
usemtl default:wood
s 91
f 163/364/4 164/363/4 62/362/4 61/361/4
usemtl default:wood
s 92
f 167/368/4 168/367/4 66/366/4 65/365/4
usemtl default:junglewood
s 93
f 76/372/4 75/371/4 165/370/4 166/369/4
usemtl default:wood
s 94
f 88/376/4 97/375/4 74/374/4 73/373/4
usemtl default:wood
s 95
f 92/380/4 105/379/4 78/378/4 77/377/4
usemtl default:wood
s 96
f 100/384/4 99/383/4 177/382/4 149/381/4
usemtl default:wood
s 97
f 181/388/4 182/387/4 179/386/4 180/385/4
usemtl default:wood
s 98
f 108/392/4 107/391/4 94/390/4 93/389/4
usemtl default:wood
s 99
f 98/396/4 87/395/4 187/394/4 188/393/4
usemtl default:wood
s 100
f 106/400/4 91/399/4 191/398/4 192/397/4
usemtl default:wood
s 101
f 113/401/5 1/402/5 4/403/5 116/404/5
usemtl default:wood
s 102
f 117/405/5 5/406/5 8/407/5 120/408/5
usemtl default:wood
s 103
f 121/409/5 13/410/5 16/411/5 123/412/5
usemtl default:wood
s 104
f 124/413/5 17/414/5 20/415/5 126/416/5
usemtl default:wood
s 105
f 127/417/5 21/418/5 24/419/5 129/420/5
usemtl default:wood
s 106
f 130/421/5 25/422/5 28/423/5 132/424/5
usemtl default:junglewood
s 107
f 133/425/5 9/426/5 12/427/5 136/428/5
usemtl default:junglewood
s 108
f 128/429/5 134/430/5 135/431/5 125/432/5
usemtl default:junglewood
s 109
f 10/433/5 197/434/5 198/435/5 11/436/5
usemtl default:junglewood
s 110
f 143/437/5 45/438/5 48/439/5 146/440/5
usemtl default:junglewood
s 111
f 147/441/5 144/442/5 145/443/5 150/444/5
usemtl default:junglewood
s 112
f 46/445/5 57/446/5 52/447/5 47/448/5
usemtl default:wood
s 113
f 56/449/5 158/450/5 151/451/5 49/452/5
usemtl default:wood
s 114
f 60/453/5 162/454/5 155/455/5 53/456/5
usemtl default:junglewood
s 115
f 159/457/5 69/458/5 64/459/5 154/460/5
usemtl default:wood
s 116
f 68/461/5 170/462/5 163/463/5 61/464/5
usemtl default:wood
s 117
f 72/465/5 174/466/5 167/467/5 65/468/5
usemtl default:junglewood
s 118
f 171/469/5 81/470/5 76/471/5 166/472/5
usemtl default:wood
s 119
f 80/473/5 85/474/5 88/475/5 73/476/5
usemtl default:wood
s 120
f 84/477/5 89/478/5 92/479/5 77/480/5
usemtl default:wood
s 121
f 50/481/5 152/482/5 153/483/5 51/484/5
usemtl default:wood
s 122
f 199/485/5 200/486/5 157/487/5 55/488/5
usemtl default:wood
s 123
f 54/489/5 156/490/5 201/491/5 202/492/5
usemtl default:wood
s 124
f 58/493/5 160/494/5 161/495/5 59/496/5
usemtl default:wood
s 125
f 62/497/5 164/498/5 165/499/5 63/500/5
usemtl default:wood
s 126
f 203/501/5 204/502/5 169/503/5 67/504/5
usemtl default:wood
s 127
f 66/505/5 168/506/5 205/507/5 206/508/5
usemtl default:wood
s 128
f 70/509/5 172/510/5 173/511/5 71/512/5
usemtl default:wood
s 129
f 74/513/5 97/514/5 100/515/5 75/516/5
usemtl default:wood
s 130
f 207/517/5 101/518/5 104/519/5 79/520/5
usemtl default:wood
s 131
f 78/521/5 105/522/5 108/523/5 208/524/5
usemtl default:wood
s 132
f 82/525/5 109/526/5 112/527/5 83/528/5
usemtl default:wood
s 133
f 32/532/6 15/531/6 14/530/6 29/529/6
usemtl default:wood
s 134
f 36/536/6 19/535/6 18/534/6 198/533/6
usemtl default:wood
s 135
f 197/540/6 23/539/6 22/538/6 33/537/6
usemtl default:wood
s 136
f 40/544/6 27/543/6 26/542/6 37/541/6
usemtl default:junglewood
s 137
f 138/548/6 142/547/6 139/546/6 137/545/6
usemtl default:junglewood
s 138
f 44/552/6 31/551/6 38/550/6 41/549/6
usemtl default:wood
s 139
f 30/556/6 3/555/6 2/554/6 35/553/6
usemtl default:wood
s 140
f 34/560/6 7/559/6 6/558/6 39/557/6
usemtl default:junglewood
s 141
f 141/564/6 43/563/6 42/562/6 140/561/6
usemtl default:junglewood
s 142
f 175/568/6 184/567/6 181/566/6 180/565/6
usemtl default:junglewood
s 143
f 96/572/6 199/571/6 202/570/6 93/569/6
usemtl default:junglewood
s 144
f 200/576/6 203/575/6 206/574/6 201/573/6
usemtl default:junglewood
s 145
f 204/580/6 207/579/6 208/578/6 205/577/6
usemtl default:wood
s 146
f 177/584/6 99/583/6 98/582/6 188/581/6
usemtl default:wood
s 147
f 185/588/6 103/587/6 102/586/6 176/585/6
usemtl default:wood
s 148
f 179/592/6 107/591/6 106/590/6 192/589/6
usemtl default:wood
s 149
f 189/596/6 111/595/6 110/594/6 178/593/6
usemtl default:junglewood
s 150
f 183/600/6 95/599/6 94/598/6 182/597/6
usemtl default:wood
s 151
f 187/604/6 87/603/6 86/602/6 186/601/6
usemtl default:wood
s 152
f 191/608/6 91/607/6 90/606/6 190/605/6


