# Blender v3.1.2 OBJ File: ''
# www.blender.org
mtllib pole_scaffolding_junc.mtl
o node_0_0_0.007
v 0.375000 0.500000 -0.500000
v 0.375000 0.500000 -0.312500
v 0.437500 0.500000 -0.312500
v 0.437500 0.500000 -0.500000
v -0.437500 0.500000 -0.500000
v -0.437500 0.500000 -0.312500
v -0.375000 0.500000 -0.312500
v -0.375000 0.500000 -0.500000
v 0.437500 0.500000 -0.437500
v 0.437500 0.500000 -0.375000
v 0.500000 0.500000 -0.375000
v 0.500000 0.500000 -0.437500
v 0.312500 0.500000 -0.437500
v 0.312500 0.500000 -0.375000
v 0.375000 0.500000 -0.375000
v 0.375000 0.500000 -0.437500
v -0.375000 0.500000 -0.437500
v -0.375000 0.500000 -0.375000
v -0.312500 0.500000 -0.375000
v -0.312500 0.500000 -0.437500
v -0.500000 0.500000 -0.437500
v -0.500000 0.500000 -0.375000
v -0.437500 0.500000 -0.375000
v -0.437500 0.500000 -0.437500
v -0.500000 -0.375000 0.250000
v -0.500000 -0.375000 0.312500
v 0.500000 -0.375000 0.312500
v 0.500000 -0.375000 0.250000
v 0.437500 -0.312500 0.312500
v 0.437500 -0.312500 0.375000
v 0.500000 -0.312500 0.375000
v 0.500000 -0.312500 0.312500
v -0.375000 -0.312500 0.312500
v -0.375000 -0.312500 0.375000
v 0.375000 -0.312500 0.375000
v 0.375000 -0.312500 0.312500
v -0.500000 -0.312500 0.312500
v -0.500000 -0.312500 0.375000
v -0.437500 -0.312500 0.375000
v -0.437500 -0.312500 0.312500
v 0.375000 0.500000 0.312500
v 0.375000 0.500000 0.500000
v 0.437500 0.500000 0.500000
v 0.437500 0.500000 0.312500
v -0.437500 0.500000 0.312500
v -0.437500 0.500000 0.500000
v -0.375000 0.500000 0.500000
v -0.375000 0.500000 0.312500
v -0.312500 -0.375000 0.375000
v -0.312500 -0.375000 0.437500
v 0.312500 -0.375000 0.437500
v 0.312500 -0.375000 0.375000
v 0.437500 0.500000 0.375000
v 0.437500 0.500000 0.437500
v 0.500000 0.500000 0.437500
v 0.500000 0.500000 0.375000
v 0.312500 0.500000 0.375000
v 0.312500 0.500000 0.437500
v 0.375000 0.500000 0.437500
v 0.375000 0.500000 0.375000
v -0.375000 0.500000 0.375000
v -0.375000 0.500000 0.437500
v -0.312500 0.500000 0.437500
v -0.312500 0.500000 0.375000
v -0.500000 0.500000 0.375000
v -0.500000 0.500000 0.437500
v -0.437500 0.500000 0.437500
v -0.437500 0.500000 0.375000
v 0.437500 -0.500000 -0.500000
v 0.437500 -0.500000 -0.312500
v 0.375000 -0.500000 -0.312500
v 0.375000 -0.500000 -0.500000
v -0.375000 -0.500000 -0.500000
v -0.375000 -0.500000 -0.312500
v -0.437500 -0.500000 -0.312500
v -0.437500 -0.500000 -0.500000
v 0.500000 -0.500000 -0.437500
v 0.500000 -0.500000 -0.375000
v 0.437500 -0.500000 -0.375000
v 0.437500 -0.500000 -0.437500
v 0.375000 -0.500000 -0.437500
v 0.375000 -0.500000 -0.375000
v 0.312500 -0.500000 -0.375000
v 0.312500 -0.500000 -0.437500
v -0.312500 -0.500000 -0.437500
v -0.312500 -0.500000 -0.375000
v -0.375000 -0.500000 -0.375000
v -0.375000 -0.500000 -0.437500
v -0.437500 -0.500000 -0.437500
v -0.437500 -0.500000 -0.375000
v -0.500000 -0.500000 -0.375000
v -0.500000 -0.500000 -0.437500
v 0.500000 -0.437500 0.250000
v 0.500000 -0.437500 0.312500
v -0.500000 -0.437500 0.312500
v -0.500000 -0.437500 0.250000
v 0.500000 -0.500000 0.312500
v 0.500000 -0.500000 0.375000
v -0.500000 -0.500000 0.375000
v -0.500000 -0.500000 0.312500
v 0.500000 -0.500000 0.437500
v 0.312500 -0.500000 0.437500
v 0.312500 -0.500000 0.375000
v -0.312500 -0.500000 0.375000
v -0.312500 -0.500000 0.437500
v -0.500000 -0.500000 0.437500
v 0.312500 -0.437500 0.375000
v 0.312500 -0.437500 0.437500
v -0.312500 -0.437500 0.437500
v -0.312500 -0.437500 0.375000
v 0.437500 -0.500000 0.437500
v 0.437500 -0.500000 0.500000
v 0.375000 -0.500000 0.500000
v 0.375000 -0.500000 0.437500
v -0.375000 -0.500000 0.437500
v -0.375000 -0.500000 0.500000
v -0.437500 -0.500000 0.500000
v -0.437500 -0.500000 0.437500
v -0.500000 -0.437500 0.375000
v -0.500000 -0.375000 0.375000
v 0.500000 -0.375000 0.375000
v 0.500000 -0.437500 0.375000
v 0.312500 -0.312500 0.375000
v -0.312500 -0.312500 0.375000
v 0.375000 -0.437500 0.437500
v -0.375000 -0.437500 0.437500
v 0.375000 -0.375000 0.437500
v -0.375000 -0.375000 0.437500
vt 0.875000 0.000000
vt 0.875000 0.187500
vt 0.937500 0.187500
vt 0.937500 0.000000
vt 0.062500 0.000000
vt 0.062500 0.187500
vt 0.125000 0.187500
vt 0.125000 0.000000
vt 0.937500 0.062500
vt 0.937500 0.125000
vt 1.000000 0.125000
vt 1.000000 0.062500
vt 0.812500 0.062500
vt 0.812500 0.125000
vt 0.875000 0.125000
vt 0.875000 0.062500
vt 0.125000 0.062500
vt 0.125000 0.125000
vt 0.187500 0.125000
vt 0.187500 0.062500
vt 0.000000 0.062500
vt 0.000000 0.125000
vt 0.062500 0.125000
vt 0.062500 0.062500
vt 0.875000 0.812500
vt 0.875000 1.000000
vt 0.937500 1.000000
vt 0.937500 0.812500
vt 0.062500 0.812500
vt 0.062500 1.000000
vt 0.125000 1.000000
vt 0.125000 0.812500
vt 0.937500 0.875000
vt 0.937500 0.937500
vt 1.000000 0.937500
vt 1.000000 0.875000
vt 0.812500 0.875000
vt 0.812500 0.937500
vt 0.875000 0.937500
vt 0.875000 0.875000
vt 0.125000 0.875000
vt 0.125000 0.937500
vt 0.187500 0.937500
vt 0.187500 0.875000
vt 0.000000 0.875000
vt 0.000000 0.937500
vt 0.062500 0.937500
vt 0.062500 0.875000
vt 0.937500 0.000000
vt 0.937500 0.187500
vt 0.875000 0.187500
vt 0.875000 0.000000
vt 0.125000 0.000000
vt 0.125000 0.187500
vt 0.062500 0.187500
vt 0.062500 0.000000
vt 1.000000 0.062500
vt 1.000000 0.125000
vt 0.937500 0.125000
vt 0.937500 0.062500
vt 0.875000 0.062500
vt 0.875000 0.125000
vt 0.812500 0.125000
vt 0.812500 0.062500
vt 0.187500 0.062500
vt 0.187500 0.125000
vt 0.125000 0.125000
vt 0.125000 0.062500
vt 0.062500 0.062500
vt 0.062500 0.125000
vt 0.000000 0.125000
vt 0.000000 0.062500
vt 1.000000 0.875000
vt 1.000000 0.937500
vt 0.812500 0.937500
vt 0.812500 0.875000
vt 0.187500 0.875000
vt 0.187500 0.937500
vt 0.000000 0.937500
vt 0.000000 0.875000
vt 0.937500 0.937500
vt 0.937500 1.000000
vt 0.875000 1.000000
vt 0.875000 0.937500
vt 0.125000 0.937500
vt 0.125000 1.000000
vt 0.062500 1.000000
vt 0.062500 0.937500
vt 0.000000 0.000000
vt 0.000000 0.062500
vt 1.000000 0.062500
vt 1.000000 0.000000
vt 0.000000 0.000000
vt 0.000000 0.062500
vt 1.000000 0.062500
vt 1.000000 0.000000
vt 0.000000 0.062500
vt 0.000000 0.125000
vt 1.000000 0.125000
vt 1.000000 0.062500
vt 1.000000 0.125000
vt 1.000000 0.062500
vt 0.000000 0.125000
vt 0.000000 0.187500
vt 1.000000 0.187500
vt 1.000000 0.125000
vt 0.000000 0.125000
vt 0.000000 0.187500
vt 1.000000 0.187500
vt 1.000000 0.125000
vt 0.187500 0.812500
vt 0.187500 0.875000
vt 1.000000 0.875000
vt 1.000000 0.812500
vt 0.187500 0.812500
vt 0.187500 0.875000
vt 1.000000 0.875000
vt 1.000000 0.812500
vt 0.000000 0.875000
vt 0.000000 0.937500
vt 0.062500 0.937500
vt 0.062500 0.875000
vt 1.000000 0.937500
vt 1.000000 0.875000
vt 0.125000 0.875000
vt 0.125000 0.937500
vt 1.000000 0.937500
vt 1.000000 0.875000
vt 0.000000 0.937500
vt 0.000000 1.000000
vt 1.000000 1.000000
vt 1.000000 0.937500
vt 0.000000 0.937500
vt 0.000000 1.000000
vt 1.000000 1.000000
vt 1.000000 0.937500
vt 1.000000 0.000000
vt 1.000000 0.062500
vt 0.000000 0.062500
vt 0.000000 0.000000
vt 1.000000 0.000000
vt 1.000000 0.062500
vt 0.000000 0.062500
vt 0.000000 0.000000
vt 0.000000 0.125000
vt 0.000000 0.062500
vt 1.000000 0.062500
vt 1.000000 0.125000
vt 0.000000 0.125000
vt 0.000000 0.062500
vt 1.000000 0.125000
vt 1.000000 0.187500
vt 0.000000 0.187500
vt 0.000000 0.125000
vt 1.000000 0.125000
vt 1.000000 0.187500
vt 0.000000 0.187500
vt 0.000000 0.125000
vt 1.000000 0.812500
vt 1.000000 0.875000
vt 0.187500 0.875000
vt 0.187500 0.812500
vt 1.000000 0.812500
vt 1.000000 0.875000
vt 0.187500 0.875000
vt 0.187500 0.812500
vt 0.000000 0.937500
vt 0.000000 0.875000
vt 0.062500 0.875000
vt 0.062500 0.937500
vt 0.000000 0.937500
vt 0.000000 0.875000
vt 1.000000 0.875000
vt 1.000000 0.937500
vt 0.125000 0.937500
vt 0.125000 0.875000
vt 1.000000 0.937500
vt 1.000000 1.000000
vt 0.000000 1.000000
vt 0.000000 0.937500
vt 1.000000 0.937500
vt 1.000000 1.000000
vt 0.000000 1.000000
vt 0.000000 0.937500
vt 0.000000 0.125000
vt 1.000000 0.125000
vt 1.000000 0.062500
vt 0.000000 0.062500
vt 0.000000 0.937500
vt 1.000000 0.937500
vt 1.000000 0.875000
vt 0.000000 0.875000
vt 1.000000 0.000000
vt 0.000000 0.000000
vt 0.000000 0.187500
vt 1.000000 0.187500
vt 1.000000 0.125000
vt 0.000000 0.125000
vt 0.000000 0.875000
vt 1.000000 0.875000
vt 1.000000 0.812500
vt 0.000000 0.812500
vt 0.000000 1.000000
vt 1.000000 1.000000
vt 1.000000 0.937500
vt 0.000000 0.937500
vt 0.125000 0.125000
vt 0.937500 0.125000
vt 0.937500 0.062500
vt 0.125000 0.062500
vt 0.125000 0.937500
vt 0.937500 0.937500
vt 0.937500 0.875000
vt 0.125000 0.875000
vt 0.125000 0.062500
vt 0.937500 0.062500
vt 0.937500 0.000000
vt 0.125000 0.000000
vt 0.125000 0.187500
vt 0.937500 0.187500
vt 0.937500 0.125000
vt 0.125000 0.125000
vt 0.125000 0.875000
vt 0.937500 0.875000
vt 0.937500 0.812500
vt 0.125000 0.812500
vt 0.125000 1.000000
vt 0.937500 1.000000
vt 0.937500 0.937500
vt 0.125000 0.937500
vt 0.000000 0.000000
vt 1.000000 0.000000
vt 1.000000 0.062500
vt 0.000000 0.062500
vt 1.000000 0.187500
vt 0.000000 0.187500
vt 0.000000 0.812500
vt 1.000000 0.812500
vt 1.000000 0.875000
vt 0.000000 0.875000
vt 0.000000 0.937500
vt 1.000000 0.937500
vt 1.000000 1.000000
vt 0.000000 1.000000
vt 0.000000 0.062500
vt 1.000000 0.062500
vt 1.000000 0.125000
vt 0.000000 0.125000
vt 0.000000 0.875000
vt 1.000000 0.875000
vt 1.000000 0.937500
vt 0.000000 0.937500
vt 0.000000 0.000000
vt 1.000000 0.000000
vt 1.000000 0.062500
vt 0.000000 0.062500
vt 0.875000 0.000000
vt 0.875000 0.062500
vt 0.812500 0.062500
vt 0.812500 0.000000
vt 0.187500 0.000000
vt 0.187500 0.062500
vt 0.125000 0.062500
vt 0.125000 0.000000
vt 1.000000 1.000000
vt 0.000000 1.000000
vt 0.125000 0.125000
vt 1.000000 0.125000
vt 1.000000 0.187500
vt 0.125000 0.187500
vt 0.125000 0.812500
vt 1.000000 0.812500
vt 1.000000 0.875000
vt 0.125000 0.875000
vt 0.000000 0.062500
vt 1.000000 0.062500
vt 1.000000 0.125000
vt 0.000000 0.125000
vt 0.000000 0.875000
vt 1.000000 0.875000
vt 1.000000 0.937500
vt 0.000000 0.937500
vt 0.000000 0.750000
vt 0.000000 0.812500
vt 1.000000 0.812500
vt 1.000000 0.750000
vt 0.937500 0.812500
vt 0.937500 0.875000
vt 1.000000 0.875000
vt 1.000000 0.812500
vt 0.125000 0.812500
vt 0.875000 0.875000
vt 0.875000 0.812500
vt 0.000000 0.812500
vt 0.000000 0.875000
vt 0.062500 0.875000
vt 0.062500 0.812500
vt 0.187500 0.875000
vt 0.187500 0.937500
vt 0.812500 0.937500
vt 0.812500 0.875000
vt 1.000000 0.750000
vt 1.000000 0.812500
vt 0.000000 0.812500
vt 0.000000 0.750000
vt 1.000000 0.812500
vt 0.000000 0.812500
vt 0.812500 0.875000
vt 0.812500 0.937500
vt 0.187500 0.937500
vt 0.187500 0.875000
vt 0.062500 0.750000
vt 0.062500 0.875000
vt 0.125000 0.875000
vt 0.125000 0.750000
vt 0.062500 0.812500
vt 0.125000 0.812500
vt 0.187500 0.875000
vt 0.187500 0.812500
vt 0.125000 0.750000
vt 0.125000 0.875000
vt 0.062500 0.875000
vt 0.062500 0.750000
vt 0.062500 0.812500
vt 0.000000 0.812500
vt 0.187500 0.812500
vt 0.187500 0.875000
vt 0.125000 0.812500
vt 0.000000 0.062500
vt 0.000000 0.125000
vt 1.000000 0.125000
vt 1.000000 0.062500
vt 0.000000 0.000000
vt 0.000000 0.062500
vt 1.000000 0.062500
vt 1.000000 0.000000
vt 0.000000 0.125000
vt 0.000000 0.187500
vt 1.000000 0.187500
vt 1.000000 0.125000
vt 0.812500 0.000000
vt 0.812500 0.062500
vt 0.187500 0.062500
vt 0.187500 0.000000
vt 0.812500 0.125000
vt 0.812500 0.187500
vt 0.187500 0.187500
vt 0.187500 0.125000
vt 0.875000 0.125000
vt 0.125000 0.125000
vn 0.0000 1.0000 0.0000
vn 0.0000 -1.0000 -0.0000
vn -1.0000 0.0000 0.0000
vn 1.0000 0.0000 0.0000
vn 0.0000 0.0000 -1.0000
vn 0.0000 -0.0000 1.0000
g node_0_0_0.007_node_0_0_0.007_default:wood.007
usemtl default:wood.007
s 1
f 1/1/1 2/2/1 3/3/1 4/4/1
f 5/5/1 6/6/1 7/7/1 8/8/1
f 9/9/1 10/10/1 11/11/1 12/12/1
f 13/13/1 14/14/1 15/15/1 16/16/1
f 17/17/1 18/18/1 19/19/1 20/20/1
f 21/21/1 22/22/1 23/23/1 24/24/1
f 41/25/1 42/26/1 43/27/1 44/28/1
f 45/29/1 46/30/1 47/31/1 48/32/1
f 53/33/1 54/34/1 55/35/1 56/36/1
f 57/37/1 58/38/1 59/39/1 60/40/1
f 61/41/1 62/42/1 63/43/1 64/44/1
f 65/45/1 66/46/1 67/47/1 68/48/1
f 69/49/2 70/50/2 71/51/2 72/52/2
f 73/53/2 74/54/2 75/55/2 76/56/2
f 77/57/2 78/58/2 79/59/2 80/60/2
f 81/61/2 82/62/2 83/63/2 84/64/2
f 85/65/2 86/66/2 87/67/2 88/68/2
f 89/69/2 90/70/2 91/71/2 92/72/2
f 98/73/2 101/74/2 102/75/2 103/76/2
f 104/77/2 105/78/2 106/79/2 99/80/2
f 111/81/2 112/82/2 113/83/2 114/84/2
f 115/85/2 116/86/2 117/87/2 118/88/2
f 72/89/3 81/90/3 16/91/3 1/92/3
f 76/93/3 89/94/3 24/95/3 5/96/3
f 84/97/3 83/98/3 14/99/3 13/100/3
f 92/72/3 91/71/3 22/101/3 21/102/3
f 82/103/3 71/104/3 2/105/3 15/106/3
f 90/107/3 75/108/3 6/109/3 23/110/3
f 36/111/3 35/112/3 60/113/3 41/114/3
f 40/115/3 39/116/3 68/117/3 45/118/3
f 103/119/3 102/120/3 108/121/3 107/122/3
f 99/80/3 106/79/3 66/123/3 65/124/3
f 52/125/3 51/126/3 58/127/3 57/128/3
f 114/129/3 113/130/3 42/131/3 59/132/3
f 118/133/3 117/134/3 46/135/3 67/136/3
f 4/137/4 9/138/4 80/139/4 69/140/4
f 8/141/4 17/142/4 88/143/4 73/144/4
f 12/12/4 11/11/4 78/145/4 77/146/4
f 20/147/4 19/148/4 86/149/4 85/150/4
f 10/151/4 3/152/4 70/153/4 79/154/4
f 18/155/4 7/156/4 74/157/4 87/158/4
f 44/159/4 53/160/4 30/161/4 29/162/4
f 48/163/4 61/164/4 34/165/4 33/166/4
f 56/36/4 55/35/4 101/167/4 98/168/4
f 110/169/4 109/170/4 105/171/4 104/172/4
f 64/173/4 63/174/4 50/175/4 49/176/4
f 54/177/4 43/178/4 112/179/4 111/180/4
f 62/181/4 47/182/4 116/183/4 115/184/4
f 72/185/5 1/186/5 4/187/5 69/188/5
f 76/189/5 5/190/5 8/191/5 73/192/5
f 80/139/5 9/138/5 12/193/5 77/194/5
f 84/195/5 13/196/5 16/197/5 81/198/5
f 88/199/5 17/200/5 20/201/5 85/202/5
f 92/203/5 21/204/5 24/205/5 89/206/5
f 36/207/5 41/208/5 44/209/5 29/210/5
f 40/211/5 45/212/5 48/213/5 33/214/5
f 30/215/5 53/216/5 56/217/5 31/218/5
f 123/219/5 57/220/5 60/221/5 35/222/5
f 34/223/5 61/224/5 64/225/5 124/226/5
f 38/227/5 65/228/5 68/229/5 39/230/5
f 78/231/6 11/232/6 10/233/6 79/234/6
f 82/103/6 15/106/6 14/235/6 83/236/6
f 86/237/6 19/238/6 18/239/6 87/240/6
f 90/241/6 23/242/6 22/243/6 91/244/6
f 70/245/6 3/246/6 2/247/6 71/248/6
f 74/249/6 7/250/6 6/251/6 75/252/6
f 101/253/6 55/254/6 54/255/6 111/256/6
f 114/257/6 125/258/6 108/259/6 102/260/6
f 105/261/6 109/262/6 126/263/6 115/264/6
f 118/133/6 67/136/6 66/265/6 106/266/6
f 127/267/6 59/268/6 58/269/6 51/270/6
f 50/271/6 63/272/6 62/273/6 128/274/6
f 112/275/6 43/276/6 42/277/6 113/278/6
f 116/279/6 47/280/6 46/281/6 117/282/6
g node_0_0_0.007_node_0_0_0.007_default:junglewood.006
usemtl default:junglewood.006
f 25/283/1 26/284/1 27/285/1 28/286/1
f 29/287/1 30/288/1 31/289/1 32/290/1
f 33/291/1 34/223/1 35/292/1 36/293/1
f 37/294/1 38/295/1 39/296/1 40/297/1
f 49/298/1 50/299/1 51/300/1 52/301/1
f 93/302/2 94/303/2 95/304/2 96/305/2
f 97/306/2 98/73/2 99/80/2 100/307/2
f 107/308/2 108/309/2 109/310/2 110/311/2
f 96/312/3 119/313/3 120/314/3 25/315/3
f 100/307/3 99/80/3 119/313/3 95/316/3
f 26/317/3 120/314/3 38/318/3 37/319/3
f 28/320/4 121/321/4 122/322/4 93/323/4
f 94/324/4 122/322/4 98/168/4 97/325/4
f 32/326/4 31/327/4 121/321/4 27/328/4
f 96/329/5 25/330/5 28/331/5 93/332/5
f 100/333/5 95/334/5 94/335/5 97/336/5
f 26/337/5 37/338/5 32/339/5 27/340/5
f 103/341/6 107/342/6 110/343/6 104/344/6
f 52/345/6 123/346/6 124/347/6 49/348/6
f 125/258/6 127/349/6 128/350/6 126/263/6
