# Blender v3.1.2 OBJ File: ''
# www.blender.org
mtllib pole_scaffolding_base.mtl
o node_0_0_0
v -0.062500 0.500000 -0.500000
v -0.062500 0.500000 -0.312500
v 0.000000 0.500000 -0.312500
v 0.000000 0.500000 -0.500000
v 0.062500 -0.375000 -0.437500
v 0.062500 -0.375000 -0.375000
v 0.500000 -0.375000 -0.375000
v 0.500000 -0.375000 -0.437500
v -0.500000 -0.375000 -0.437500
v -0.500000 -0.375000 -0.375000
v -0.125000 -0.375000 -0.375000
v -0.125000 -0.375000 -0.437500
v 0.000000 0.500000 -0.437500
v 0.000000 0.500000 -0.375000
v 0.062500 0.500000 -0.375000
v 0.062500 0.500000 -0.437500
v -0.125000 0.500000 -0.437500
v -0.125000 0.500000 -0.375000
v -0.062500 0.500000 -0.375000
v -0.062500 0.500000 -0.437500
v 0.000000 -0.312500 -0.375000
v 0.000000 -0.312500 -0.312500
v 0.500000 -0.312500 -0.312500
v 0.500000 -0.312500 -0.375000
v -0.500000 -0.312500 -0.375000
v -0.500000 -0.312500 -0.312500
v -0.062500 -0.312500 -0.312500
v -0.062500 -0.312500 -0.375000
v -0.500000 -0.375000 -0.312500
v -0.500000 -0.375000 -0.250000
v 0.500000 -0.375000 -0.250000
v 0.500000 -0.375000 -0.312500
v -0.500000 -0.375000 0.250000
v -0.500000 -0.375000 0.312500
v 0.500000 -0.375000 0.312500
v 0.500000 -0.375000 0.250000
v 0.062500 -0.312500 0.312500
v 0.062500 -0.312500 0.375000
v 0.500000 -0.312500 0.375000
v 0.500000 -0.312500 0.312500
v -0.500000 -0.312500 0.312500
v -0.500000 -0.312500 0.375000
v 0.000000 -0.312500 0.375000
v 0.000000 -0.312500 0.312500
v 0.000000 0.500000 0.312500
v 0.000000 0.500000 0.500000
v 0.062500 0.500000 0.500000
v 0.062500 0.500000 0.312500
v 0.125000 -0.375000 0.375000
v 0.125000 -0.375000 0.437500
v 0.500000 -0.375000 0.437500
v 0.500000 -0.375000 0.375000
v -0.500000 -0.375000 0.375000
v -0.500000 -0.375000 0.437500
v -0.062500 -0.375000 0.437500
v -0.062500 -0.375000 0.375000
v 0.062500 0.500000 0.375000
v 0.062500 0.500000 0.437500
v 0.125000 0.500000 0.437500
v 0.125000 0.500000 0.375000
v -0.062500 0.500000 0.375000
v -0.062500 0.500000 0.437500
v 0.000000 0.500000 0.437500
v 0.000000 0.500000 0.375000
v 0.000000 -0.500000 -0.500000
v 0.000000 -0.500000 -0.375000
v -0.062500 -0.500000 -0.375000
v -0.062500 -0.500000 -0.500000
v 0.062500 -0.500000 -0.437500
v 0.062500 -0.500000 -0.375000
v 0.000000 -0.500000 -0.437500
v -0.062500 -0.500000 -0.437500
v -0.125000 -0.500000 -0.375000
v -0.125000 -0.500000 -0.437500
v 0.500000 -0.437500 -0.437500
v 0.500000 -0.437500 -0.375000
v 0.062500 -0.437500 -0.375000
v 0.062500 -0.437500 -0.437500
v -0.125000 -0.437500 -0.437500
v -0.125000 -0.437500 -0.375000
v -0.500000 -0.437500 -0.375000
v -0.500000 -0.437500 -0.437500
v 0.500000 -0.500000 -0.375000
v 0.500000 -0.500000 -0.312500
v -0.500000 -0.500000 -0.312500
v -0.500000 -0.500000 -0.375000
v 0.500000 -0.437500 -0.312500
v 0.500000 -0.437500 -0.250000
v -0.500000 -0.437500 -0.250000
v -0.500000 -0.437500 -0.312500
v 0.500000 -0.437500 0.250000
v 0.500000 -0.437500 0.312500
v -0.500000 -0.437500 0.312500
v -0.500000 -0.437500 0.250000
v 0.500000 -0.500000 0.312500
v 0.500000 -0.500000 0.375000
v -0.500000 -0.500000 0.375000
v -0.500000 -0.500000 0.312500
v 0.125000 -0.500000 0.375000
v 0.125000 -0.500000 0.437500
v -0.062500 -0.500000 0.437500
v -0.062500 -0.500000 0.375000
v 0.500000 -0.437500 0.375000
v 0.500000 -0.437500 0.437500
v 0.125000 -0.437500 0.437500
v 0.125000 -0.437500 0.375000
v -0.062500 -0.437500 0.375000
v -0.062500 -0.437500 0.437500
v -0.500000 -0.437500 0.437500
v -0.500000 -0.437500 0.375000
v 0.062500 -0.500000 0.437500
v 0.062500 -0.500000 0.500000
v 0.000000 -0.500000 0.500000
v 0.000000 -0.500000 0.437500
v 0.062500 -0.312500 -0.375000
v -0.125000 -0.312500 -0.375000
v 0.125000 -0.312500 0.375000
v -0.062500 -0.312500 0.375000
vt 0.437500 0.000000
vt 0.437500 0.187500
vt 0.500000 0.187500
vt 0.500000 0.000000
vt 0.500000 0.062500
vt 0.500000 0.125000
vt 0.562500 0.125000
vt 0.562500 0.062500
vt 0.375000 0.062500
vt 0.375000 0.125000
vt 0.437500 0.125000
vt 0.437500 0.062500
vt 0.500000 0.812500
vt 0.500000 1.000000
vt 0.562500 1.000000
vt 0.562500 0.812500
vt 0.562500 0.875000
vt 0.562500 0.937500
vt 0.625000 0.937500
vt 0.625000 0.875000
vt 0.437500 0.875000
vt 0.437500 0.937500
vt 0.500000 0.937500
vt 0.500000 0.875000
vt 0.500000 0.000000
vt 0.500000 0.125000
vt 0.437500 0.125000
vt 0.437500 0.000000
vt 0.562500 0.062500
vt 0.562500 0.125000
vt 0.500000 0.062500
vt 0.437500 0.062500
vt 0.375000 0.125000
vt 0.375000 0.062500
vt 0.625000 0.875000
vt 0.625000 0.937500
vt 0.437500 0.937500
vt 0.437500 0.875000
vt 0.562500 0.937500
vt 0.562500 1.000000
vt 0.500000 1.000000
vt 0.500000 0.937500
vt 0.000000 0.000000
vt 0.000000 0.062500
vt 1.000000 0.062500
vt 1.000000 0.000000
vt 0.000000 0.062500
vt 0.000000 0.125000
vt 0.062500 0.125000
vt 0.062500 0.062500
vt 0.125000 0.062500
vt 0.125000 0.125000
vt 1.000000 0.125000
vt 1.000000 0.062500
vt 0.187500 0.125000
vt 0.187500 0.187500
vt 1.000000 0.187500
vt 1.000000 0.125000
vt 0.187500 0.812500
vt 0.187500 0.875000
vt 1.000000 0.875000
vt 1.000000 0.812500
vt 0.000000 0.875000
vt 0.000000 0.937500
vt 0.062500 0.937500
vt 0.062500 0.875000
vt 0.125000 0.875000
vt 0.125000 0.937500
vt 1.000000 0.937500
vt 1.000000 0.875000
vt 0.000000 0.937500
vt 0.000000 1.000000
vt 1.000000 1.000000
vt 1.000000 0.937500
vt 1.000000 0.000000
vt 1.000000 0.062500
vt 0.000000 0.062500
vt 0.000000 0.000000
vt 0.062500 0.062500
vt 0.062500 0.125000
vt 0.000000 0.125000
vt 0.000000 0.062500
vt 1.000000 0.062500
vt 1.000000 0.125000
vt 0.125000 0.125000
vt 0.125000 0.062500
vt 1.000000 0.125000
vt 1.000000 0.187500
vt 0.187500 0.187500
vt 0.187500 0.125000
vt 1.000000 0.812500
vt 1.000000 0.875000
vt 0.187500 0.875000
vt 0.187500 0.812500
vt 0.062500 0.875000
vt 0.062500 0.937500
vt 0.000000 0.937500
vt 0.000000 0.875000
vt 1.000000 0.875000
vt 1.000000 0.937500
vt 0.125000 0.937500
vt 0.125000 0.875000
vt 1.000000 0.937500
vt 1.000000 1.000000
vt 0.000000 1.000000
vt 0.000000 0.937500
vt 0.000000 0.562500
vt 1.000000 0.562500
vt 1.000000 0.500000
vt 0.000000 0.500000
vt 0.000000 0.500000
vt 1.000000 0.500000
vt 1.000000 0.437500
vt 0.000000 0.437500
vt 0.000000 0.625000
vt 1.000000 0.625000
vt 1.000000 0.562500
vt 0.000000 0.562500
vt 0.125000 0.625000
vt 0.937500 0.625000
vt 0.937500 0.562500
vt 0.125000 0.562500
vt 0.125000 0.562500
vt 0.937500 0.562500
vt 0.937500 0.500000
vt 0.125000 0.500000
vt 0.125000 0.687500
vt 0.937500 0.687500
vt 0.937500 0.625000
vt 0.125000 0.625000
vt 0.062500 0.500000
vt 0.875000 0.500000
vt 0.875000 0.562500
vt 0.062500 0.562500
vt 0.062500 0.625000
vt 0.875000 0.625000
vt 0.875000 0.687500
vt 0.062500 0.687500
vt 0.062500 0.562500
vt 0.875000 0.562500
vt 0.875000 0.625000
vt 0.062500 0.625000
vt 0.000000 0.437500
vt 1.000000 0.437500
vt 1.000000 0.500000
vt 0.000000 0.500000
vt 0.000000 0.562500
vt 1.000000 0.562500
vt 1.000000 0.625000
vt 0.000000 0.625000
vt 0.000000 0.500000
vt 1.000000 0.500000
vt 1.000000 0.562500
vt 0.000000 0.562500
vt 0.562500 0.062500
vt 0.562500 0.125000
vt 1.000000 0.125000
vt 1.000000 0.062500
vt 0.000000 0.062500
vt 0.000000 0.125000
vt 0.375000 0.125000
vt 0.375000 0.062500
vt 0.500000 0.125000
vt 0.500000 0.187500
vt 1.000000 0.187500
vt 1.000000 0.125000
vt 0.000000 0.125000
vt 0.000000 0.187500
vt 0.437500 0.187500
vt 0.437500 0.125000
vt 0.000000 0.187500
vt 0.000000 0.250000
vt 1.000000 0.250000
vt 1.000000 0.187500
vt 0.000000 0.750000
vt 0.000000 0.812500
vt 1.000000 0.812500
vt 1.000000 0.750000
vt 0.562500 0.812500
vt 0.562500 0.875000
vt 1.000000 0.875000
vt 1.000000 0.812500
vt 0.000000 0.812500
vt 0.000000 0.875000
vt 0.500000 0.875000
vt 0.500000 0.812500
vt 0.625000 0.875000
vt 0.625000 0.937500
vt 1.000000 0.937500
vt 1.000000 0.875000
vt 0.000000 0.875000
vt 0.000000 0.937500
vt 0.437500 0.937500
vt 0.437500 0.875000
vt 1.000000 0.062500
vt 1.000000 0.125000
vt 0.562500 0.125000
vt 0.562500 0.062500
vt 0.375000 0.062500
vt 0.375000 0.125000
vt 0.000000 0.125000
vt 0.000000 0.062500
vt 1.000000 0.125000
vt 1.000000 0.187500
vt 0.000000 0.187500
vt 0.000000 0.125000
vt 1.000000 0.187500
vt 1.000000 0.250000
vt 0.000000 0.250000
vt 0.000000 0.187500
vt 1.000000 0.750000
vt 1.000000 0.812500
vt 0.000000 0.812500
vt 0.000000 0.750000
vt 1.000000 0.812500
vt 1.000000 0.875000
vt 0.000000 0.875000
vt 0.000000 0.812500
vt 1.000000 0.875000
vt 1.000000 0.937500
vt 0.625000 0.937500
vt 0.625000 0.875000
vt 0.437500 0.875000
vt 0.437500 0.937500
vt 0.000000 0.937500
vt 0.000000 0.875000
vt 0.062500 0.062500
vt 0.062500 0.250000
vt 0.125000 0.250000
vt 0.125000 0.062500
vt 0.062500 0.187500
vt 0.062500 0.125000
vt 0.125000 0.125000
vt 0.125000 0.187500
vt 0.187500 0.187500
vt 0.187500 0.125000
vt 0.062500 0.750000
vt 0.062500 0.937500
vt 0.125000 0.937500
vt 0.125000 0.750000
vt 0.062500 0.875000
vt 0.062500 0.812500
vt 0.125000 0.812500
vt 0.125000 0.875000
vt 0.187500 0.875000
vt 0.187500 0.812500
vt 0.125000 0.062500
vt 0.125000 0.250000
vt 0.062500 0.250000
vt 0.062500 0.062500
vt 0.062500 0.125000
vt 0.062500 0.187500
vt 0.000000 0.187500
vt 0.000000 0.125000
vt 0.187500 0.125000
vt 0.187500 0.187500
vt 0.125000 0.187500
vt 0.125000 0.125000
vt 0.125000 0.750000
vt 0.125000 0.937500
vt 0.062500 0.937500
vt 0.062500 0.750000
vt 0.062500 0.812500
vt 0.062500 0.875000
vt 0.000000 0.875000
vt 0.000000 0.812500
vt 0.187500 0.812500
vt 0.187500 0.875000
vt 0.125000 0.875000
vt 0.125000 0.812500
vt 0.562500 0.125000
vt 1.000000 0.125000
vt 0.000000 0.125000
vt 0.375000 0.125000
vt 0.562500 0.000000
vt 0.562500 0.062500
vt 1.000000 0.062500
vt 1.000000 0.000000
vt 0.000000 0.000000
vt 0.000000 0.062500
vt 0.375000 0.062500
vt 0.375000 0.000000
vt 0.562500 0.187500
vt 1.000000 0.187500
vt 0.000000 0.187500
vt 0.375000 0.187500
vt 0.000000 0.062500
vt 0.000000 0.125000
vt 1.000000 0.125000
vt 1.000000 0.062500
vt 0.000000 0.000000
vt 0.000000 0.062500
vt 1.000000 0.062500
vt 1.000000 0.000000
vt 0.000000 0.125000
vt 0.000000 0.187500
vt 1.000000 0.187500
vt 1.000000 0.125000
vt 1.000000 0.000000
vt 1.000000 0.062500
vt 0.000000 0.062500
vt 0.000000 0.000000
vt 1.000000 0.125000
vt 0.000000 0.125000
vt 1.000000 0.062500
vt 1.000000 0.125000
vt 0.000000 0.125000
vt 0.000000 0.062500
vt 1.000000 0.000000
vt 1.000000 0.062500
vt 0.625000 0.062500
vt 0.625000 0.000000
vt 0.437500 0.000000
vt 0.437500 0.062500
vt 0.000000 0.062500
vt 0.000000 0.000000
vt 1.000000 0.125000
vt 1.000000 0.187500
vt 0.625000 0.187500
vt 0.625000 0.125000
vt 0.437500 0.125000
vt 0.437500 0.187500
vt 0.000000 0.187500
vt 0.000000 0.125000
vt 1.000000 0.062500
vt 1.000000 0.125000
vt 0.625000 0.125000
vt 0.625000 0.062500
vt 0.437500 0.062500
vt 0.437500 0.125000
vt 0.000000 0.125000
vt 0.000000 0.062500
vn 0.0000 1.0000 0.0000
vn 0.0000 -1.0000 0.0000
vn -1.0000 0.0000 0.0000
vn 1.0000 0.0000 0.0000
vn 0.0000 0.0000 -1.0000
vn 0.0000 -0.0000 1.0000
g node_0_0_0_node_0_0_0_default:wood
usemtl default:wood
s 1
f 1/1/1 2/2/1 3/3/1 4/4/1
f 13/5/1 14/6/1 15/7/1 16/8/1
f 17/9/1 18/10/1 19/11/1 20/12/1
f 45/13/1 46/14/1 47/15/1 48/16/1
f 57/17/1 58/18/1 59/19/1 60/20/1
f 61/21/1 62/22/1 63/23/1 64/24/1
f 65/25/2 66/26/2 67/27/2 68/28/2
f 69/29/2 70/30/2 66/26/2 71/31/2
f 72/32/2 67/27/2 73/33/2 74/34/2
f 99/35/2 100/36/2 101/37/2 102/38/2
f 111/39/2 112/40/2 113/41/2 114/42/2
f 68/43/3 72/44/3 20/45/3 1/46/3
f 74/47/3 73/48/3 80/49/3 79/50/3
f 12/51/3 11/52/3 18/53/3 17/54/3
f 28/55/3 27/56/3 2/57/3 19/58/3
f 44/59/3 43/60/3 64/61/3 45/62/3
f 102/63/3 101/64/3 108/65/3 107/66/3
f 56/67/3 55/68/3 62/69/3 61/70/3
f 114/71/3 113/72/3 46/73/3 63/74/3
f 4/75/4 13/76/4 71/77/4 65/78/4
f 78/79/4 77/80/4 70/81/4 69/82/4
f 16/83/4 15/84/4 6/85/4 5/86/4
f 14/87/4 3/88/4 22/89/4 21/90/4
f 48/91/4 57/92/4 38/93/4 37/94/4
f 106/95/4 105/96/4 100/97/4 99/98/4
f 60/99/4 59/100/4 50/101/4 49/102/4
f 58/103/4 47/104/4 112/105/4 111/106/4
f 68/107/5 1/108/5 4/109/5 65/110/5
f 71/111/5 13/112/5 16/113/5 69/114/5
f 74/115/5 17/116/5 20/117/5 72/118/5
f 44/119/5 45/120/5 48/121/5 37/122/5
f 38/123/5 57/124/5 60/125/5 117/126/5
f 118/127/5 61/128/5 64/129/5 43/130/5
f 115/131/6 15/132/6 14/133/6 21/134/6
f 28/135/6 19/136/6 18/137/6 116/138/6
f 22/139/6 3/140/6 2/141/6 27/142/6
f 100/143/6 59/144/6 58/145/6 111/146/6
f 114/147/6 63/148/6 62/149/6 101/150/6
f 112/151/6 47/152/6 46/153/6 113/154/6
g node_0_0_0_node_0_0_0_default:junglewood
usemtl default:junglewood
f 5/155/1 6/156/1 7/157/1 8/158/1
f 9/159/1 10/160/1 11/161/1 12/162/1
f 21/163/1 22/164/1 23/165/1 24/166/1
f 25/167/1 26/168/1 27/169/1 28/170/1
f 29/171/1 30/172/1 31/173/1 32/174/1
f 33/175/1 34/176/1 35/177/1 36/178/1
f 37/179/1 38/180/1 39/181/1 40/182/1
f 41/183/1 42/184/1 43/185/1 44/186/1
f 49/187/1 50/188/1 51/189/1 52/190/1
f 53/191/1 54/192/1 55/193/1 56/194/1
f 75/195/2 76/196/2 77/197/2 78/198/2
f 79/199/2 80/200/2 81/201/2 82/202/2
f 83/203/2 84/204/2 85/205/2 86/206/2
f 87/207/2 88/208/2 89/209/2 90/210/2
f 91/211/2 92/212/2 93/213/2 94/214/2
f 95/215/2 96/216/2 97/217/2 98/218/2
f 103/219/2 104/220/2 105/221/2 106/222/2
f 107/223/2 108/224/2 109/225/2 110/226/2
f 82/227/3 89/228/3 30/229/3 9/230/3
f 86/206/3 85/205/3 90/231/3 81/232/3
f 10/233/3 29/234/3 26/235/3 25/236/3
f 94/237/3 109/238/3 54/239/3 33/240/3
f 98/218/3 97/217/3 110/241/3 93/242/3
f 34/243/3 53/244/3 42/245/3 41/246/3
f 8/247/4 31/248/4 88/249/4 75/250/4
f 76/251/4 87/252/4 84/253/4 83/254/4
f 24/255/4 23/256/4 32/257/4 7/258/4
f 36/259/4 51/260/4 104/261/4 91/262/4
f 92/263/4 103/264/4 96/265/4 95/266/4
f 40/267/4 39/268/4 52/269/4 35/270/4
f 78/198/5 5/271/5 8/272/5 75/195/5
f 82/202/5 9/273/5 12/274/5 79/199/5
f 70/275/5 77/276/5 76/277/5 83/278/5
f 86/279/5 81/280/5 80/281/5 73/282/5
f 6/156/5 115/283/5 24/284/5 7/157/5
f 10/160/5 25/285/5 116/286/5 11/161/5
f 94/287/5 33/288/5 36/289/5 91/290/5
f 98/291/5 93/292/5 92/293/5 95/294/5
f 34/295/5 41/296/5 40/297/5 35/298/5
f 84/299/6 87/300/6 90/301/6 85/302/6
f 32/303/6 23/165/6 26/168/6 29/304/6
f 88/305/6 31/306/6 30/307/6 89/308/6
f 96/309/6 103/310/6 106/311/6 99/312/6
f 102/313/6 107/314/6 110/315/6 97/316/6
f 52/317/6 39/318/6 117/319/6 49/320/6
f 56/321/6 118/322/6 42/323/6 53/324/6
f 104/325/6 51/326/6 50/327/6 105/328/6
f 108/329/6 55/330/6 54/331/6 109/332/6
