# Blender v3.1.2 OBJ File: ''
# www.blender.org
mtllib pole_scaffolding_base_floor.mtl
o node_0_0_0
v -0.062500 0.500000 -0.500000
v -0.062500 0.500000 -0.312500
v 0.000000 0.500000 -0.312500
v 0.000000 0.500000 -0.500000
v 0.000000 0.500000 -0.437500
v 0.000000 0.500000 -0.375000
v 0.062500 0.500000 -0.375000
v 0.062500 0.500000 -0.437500
v -0.125000 0.500000 -0.437500
v -0.125000 0.500000 -0.375000
v -0.062500 0.500000 -0.375000
v -0.062500 0.500000 -0.437500
v 0.000000 0.500000 0.312500
v 0.000000 0.500000 0.500000
v 0.062500 0.500000 0.500000
v 0.062500 0.500000 0.312500
v 0.062500 0.500000 0.375000
v 0.062500 0.500000 0.437500
v 0.125000 0.500000 0.437500
v 0.125000 0.500000 0.375000
v -0.062500 0.500000 0.375000
v -0.062500 0.500000 0.437500
v 0.000000 0.500000 0.437500
v 0.000000 0.500000 0.375000
v 0.000000 -0.500000 -0.500000
v 0.000000 -0.500000 -0.375000
v -0.062500 -0.500000 -0.375000
v -0.062500 -0.500000 -0.500000
v 0.062500 -0.500000 -0.437500
v 0.062500 -0.500000 -0.375000
v 0.000000 -0.500000 -0.437500
v -0.062500 -0.500000 -0.437500
v -0.125000 -0.500000 -0.375000
v -0.125000 -0.500000 -0.437500
v 0.125000 -0.500000 0.375000
v 0.125000 -0.500000 0.437500
v -0.062500 -0.500000 0.437500
v -0.062500 -0.500000 0.375000
v 0.062500 -0.500000 0.437500
v 0.062500 -0.500000 0.500000
v 0.000000 -0.500000 0.500000
v 0.000000 -0.500000 0.437500
v -0.125000 -0.437500 -0.375000
v -0.125000 -0.437500 -0.437500
v -0.125000 -0.375000 -0.437500
v -0.125000 -0.375000 -0.375000
v -0.062500 -0.312500 -0.375000
v -0.062500 -0.312500 -0.312500
v 0.000000 -0.312500 0.312500
v 0.000000 -0.312500 0.375000
v -0.062500 -0.437500 0.437500
v -0.062500 -0.437500 0.375000
v -0.062500 -0.375000 0.375000
v -0.062500 -0.375000 0.437500
v 0.062500 -0.437500 -0.437500
v 0.062500 -0.437500 -0.375000
v 0.062500 -0.375000 -0.375000
v 0.062500 -0.375000 -0.437500
v 0.000000 -0.312500 -0.312500
v 0.000000 -0.312500 -0.375000
v 0.062500 -0.312500 0.375000
v 0.062500 -0.312500 0.312500
v 0.125000 -0.437500 0.375000
v 0.125000 -0.437500 0.437500
v 0.125000 -0.375000 0.437500
v 0.125000 -0.375000 0.375000
v 0.125000 -0.312500 0.375000
v -0.062500 -0.312500 0.375000
v 0.062500 -0.312500 -0.375000
v -0.125000 -0.312500 -0.375000
v 0.500000 -0.375000 -0.375000
v 0.500000 -0.375000 -0.437500
v -0.500000 -0.375000 -0.437500
v -0.500000 -0.375000 -0.375000
v 0.500000 -0.312500 -0.312500
v 0.500000 -0.312500 -0.375000
v -0.500000 -0.312500 -0.375000
v -0.500000 -0.312500 -0.312500
v 0.437500 -0.375000 -0.312500
v 0.437500 -0.375000 -0.250000
v 0.500000 -0.375000 -0.250000
v 0.500000 -0.375000 -0.312500
v 0.125000 -0.375000 -0.312500
v 0.125000 -0.375000 -0.250000
v 0.250000 -0.375000 -0.250000
v 0.250000 -0.375000 -0.312500
v -0.250000 -0.375000 -0.312500
v -0.250000 -0.375000 -0.250000
v -0.125000 -0.375000 -0.250000
v -0.125000 -0.375000 -0.312500
v -0.500000 -0.375000 -0.312500
v -0.500000 -0.375000 -0.250000
v -0.437500 -0.375000 -0.250000
v -0.437500 -0.375000 -0.312500
v 0.437500 -0.375000 0.250000
v 0.437500 -0.375000 0.312500
v 0.500000 -0.375000 0.312500
v 0.500000 -0.375000 0.250000
v 0.125000 -0.375000 0.250000
v 0.125000 -0.375000 0.312500
v 0.250000 -0.375000 0.312500
v 0.250000 -0.375000 0.250000
v -0.250000 -0.375000 0.250000
v -0.250000 -0.375000 0.312500
v -0.125000 -0.375000 0.312500
v -0.125000 -0.375000 0.250000
v -0.500000 -0.375000 0.250000
v -0.500000 -0.375000 0.312500
v -0.437500 -0.375000 0.312500
v -0.437500 -0.375000 0.250000
v 0.500000 -0.312500 0.375000
v 0.500000 -0.312500 0.312500
v -0.500000 -0.312500 0.312500
v -0.500000 -0.312500 0.375000
v 0.500000 -0.375000 0.437500
v 0.500000 -0.375000 0.375000
v -0.500000 -0.375000 0.375000
v -0.500000 -0.375000 0.437500
v 0.500000 -0.437500 -0.437500
v 0.500000 -0.437500 -0.375000
v -0.500000 -0.437500 -0.375000
v -0.500000 -0.437500 -0.437500
v 0.500000 -0.500000 -0.375000
v 0.500000 -0.500000 -0.312500
v -0.500000 -0.500000 -0.312500
v -0.500000 -0.500000 -0.375000
v 0.500000 -0.437500 -0.312500
v 0.500000 -0.437500 -0.250000
v -0.500000 -0.437500 -0.250000
v -0.500000 -0.437500 -0.312500
v 0.500000 -0.437500 0.250000
v 0.500000 -0.437500 0.312500
v -0.500000 -0.437500 0.312500
v -0.500000 -0.437500 0.250000
v 0.500000 -0.500000 0.312500
v 0.500000 -0.500000 0.375000
v -0.500000 -0.500000 0.375000
v -0.500000 -0.500000 0.312500
v 0.500000 -0.437500 0.375000
v 0.500000 -0.437500 0.437500
v -0.500000 -0.437500 0.437500
v -0.500000 -0.437500 0.375000
v 0.437500 -0.312500 0.312500
v 0.125000 -0.312500 0.312500
v 0.250000 -0.312500 0.312500
v -0.250000 -0.312500 0.312500
v -0.125000 -0.312500 0.312500
v -0.437500 -0.312500 0.312500
v 0.437500 -0.312500 -0.312500
v 0.250000 -0.312500 -0.312500
v 0.125000 -0.312500 -0.312500
v -0.125000 -0.312500 -0.312500
v -0.250000 -0.312500 -0.312500
v -0.437500 -0.312500 -0.312500
vt 0.437500 0.000000
vt 0.437500 0.187500
vt 0.500000 0.187500
vt 0.500000 0.000000
vt 0.500000 0.062500
vt 0.500000 0.125000
vt 0.562500 0.125000
vt 0.562500 0.062500
vt 0.375000 0.062500
vt 0.375000 0.125000
vt 0.437500 0.125000
vt 0.437500 0.062500
vt 0.500000 0.812500
vt 0.500000 1.000000
vt 0.562500 1.000000
vt 0.562500 0.812500
vt 0.562500 0.875000
vt 0.562500 0.937500
vt 0.625000 0.937500
vt 0.625000 0.875000
vt 0.437500 0.875000
vt 0.437500 0.937500
vt 0.500000 0.937500
vt 0.500000 0.875000
vt 0.500000 0.000000
vt 0.500000 0.125000
vt 0.437500 0.125000
vt 0.437500 0.000000
vt 0.562500 0.062500
vt 0.562500 0.125000
vt 0.500000 0.062500
vt 0.437500 0.062500
vt 0.375000 0.125000
vt 0.375000 0.062500
vt 0.625000 0.875000
vt 0.625000 0.937500
vt 0.437500 0.937500
vt 0.437500 0.875000
vt 0.562500 0.937500
vt 0.562500 1.000000
vt 0.500000 1.000000
vt 0.500000 0.937500
vt 1.000000 0.625000
vt 1.000000 0.562500
vt 0.000000 0.562500
vt 0.000000 0.625000
vt 0.437500 1.000000
vt 0.500000 1.000000
vt 0.500000 0.937500
vt 0.437500 0.937500
vt 0.875000 0.562500
vt 0.875000 0.500000
vt 0.000000 0.500000
vt 0.000000 0.562500
vt 0.812500 0.500000
vt 0.812500 0.437500
vt 0.000000 0.437500
vt 0.000000 0.500000
vt 0.812500 0.562500
vt 0.812500 0.500000
vt 0.000000 0.500000
vt 0.000000 0.562500
vt 0.500000 1.000000
vt 0.562500 1.000000
vt 0.562500 0.937500
vt 0.500000 0.937500
vt 0.875000 0.500000
vt 0.875000 0.437500
vt 0.000000 0.437500
vt 0.000000 0.500000
vt 1.000000 0.437500
vt 1.000000 0.375000
vt 0.000000 0.375000
vt 0.000000 0.437500
vt 0.000000 0.625000
vt 0.000000 0.562500
vt 1.000000 0.562500
vt 1.000000 0.625000
vt 0.437500 0.937500
vt 0.500000 0.937500
vt 0.500000 1.000000
vt 0.437500 1.000000
vt 0.000000 0.562500
vt 0.000000 0.500000
vt 0.875000 0.500000
vt 0.875000 0.562500
vt 0.000000 0.500000
vt 0.000000 0.437500
vt 0.812500 0.437500
vt 0.812500 0.500000
vt 0.000000 0.562500
vt 0.000000 0.500000
vt 0.812500 0.500000
vt 0.812500 0.562500
vt 0.500000 0.937500
vt 0.562500 0.937500
vt 0.562500 1.000000
vt 0.500000 1.000000
vt 0.000000 0.500000
vt 0.000000 0.437500
vt 0.875000 0.437500
vt 0.875000 0.500000
vt 0.000000 0.437500
vt 0.000000 0.375000
vt 1.000000 0.375000
vt 1.000000 0.437500
vt 0.000000 0.562500
vt 1.000000 0.562500
vt 1.000000 0.500000
vt 0.000000 0.500000
vt 0.000000 0.500000
vt 1.000000 0.500000
vt 1.000000 0.437500
vt 0.000000 0.437500
vt 0.000000 0.625000
vt 1.000000 0.625000
vt 1.000000 0.562500
vt 0.000000 0.562500
vt 0.187500 0.500000
vt 1.000000 0.500000
vt 1.000000 0.437500
vt 0.187500 0.437500
vt 0.187500 0.437500
vt 1.000000 0.437500
vt 1.000000 0.375000
vt 0.187500 0.375000
vt 0.187500 0.562500
vt 1.000000 0.562500
vt 1.000000 0.500000
vt 0.187500 0.500000
vt 0.125000 0.375000
vt 0.937500 0.375000
vt 0.937500 0.437500
vt 0.125000 0.437500
vt 0.187500 0.562500
vt 1.000000 0.562500
vt 1.000000 0.625000
vt 0.187500 0.625000
vt 0.125000 0.437500
vt 0.937500 0.437500
vt 0.937500 0.500000
vt 0.125000 0.500000
vt 0.000000 0.375000
vt 1.000000 0.375000
vt 1.000000 0.437500
vt 0.000000 0.437500
vt 0.000000 0.500000
vt 1.000000 0.500000
vt 1.000000 0.562500
vt 0.000000 0.562500
vt 0.000000 0.437500
vt 1.000000 0.437500
vt 1.000000 0.500000
vt 0.000000 0.500000
vt 0.437500 0.875000
vt 0.437500 0.812500
vt 0.000000 0.812500
vt 0.000000 0.875000
vt 1.000000 0.875000
vt 1.000000 0.812500
vt 0.625000 0.812500
vt 0.625000 0.875000
vt 0.500000 0.812500
vt 0.500000 0.750000
vt 0.000000 0.750000
vt 0.000000 0.812500
vt 1.000000 0.812500
vt 1.000000 0.750000
vt 0.562500 0.750000
vt 0.562500 0.812500
vt 0.062500 0.750000
vt 0.062500 0.687500
vt 0.000000 0.687500
vt 0.000000 0.750000
vt 0.375000 0.750000
vt 0.375000 0.687500
vt 0.250000 0.687500
vt 0.250000 0.750000
vt 0.750000 0.750000
vt 0.750000 0.687500
vt 0.625000 0.687500
vt 0.625000 0.750000
vt 1.000000 0.750000
vt 1.000000 0.687500
vt 0.937500 0.687500
vt 0.937500 0.750000
vt 0.062500 0.187500
vt 0.062500 0.125000
vt 0.000000 0.125000
vt 0.000000 0.187500
vt 0.375000 0.187500
vt 0.375000 0.125000
vt 0.250000 0.125000
vt 0.250000 0.187500
vt 0.750000 0.187500
vt 0.750000 0.125000
vt 0.625000 0.125000
vt 0.625000 0.187500
vt 1.000000 0.187500
vt 1.000000 0.125000
vt 0.937500 0.125000
vt 0.937500 0.187500
vt 0.437500 0.125000
vt 0.437500 0.062500
vt 0.000000 0.062500
vt 0.000000 0.125000
vt 1.000000 0.125000
vt 1.000000 0.062500
vt 0.500000 0.062500
vt 0.500000 0.125000
vt 0.375000 0.062500
vt 0.375000 0.000000
vt 0.000000 0.000000
vt 0.000000 0.062500
vt 1.000000 0.062500
vt 1.000000 0.000000
vt 0.562500 0.000000
vt 0.562500 0.062500
vt 0.000000 0.875000
vt 0.000000 0.812500
vt 0.437500 0.812500
vt 0.437500 0.875000
vt 0.625000 0.875000
vt 0.625000 0.812500
vt 1.000000 0.812500
vt 1.000000 0.875000
vt 0.000000 0.812500
vt 0.000000 0.750000
vt 1.000000 0.750000
vt 1.000000 0.812500
vt 0.000000 0.750000
vt 0.000000 0.687500
vt 1.000000 0.687500
vt 1.000000 0.750000
vt 0.000000 0.187500
vt 0.000000 0.125000
vt 1.000000 0.125000
vt 1.000000 0.187500
vt 0.000000 0.125000
vt 0.000000 0.062500
vt 1.000000 0.062500
vt 1.000000 0.125000
vt 0.000000 0.062500
vt 0.000000 0.000000
vt 0.375000 0.000000
vt 0.375000 0.062500
vt 0.562500 0.062500
vt 0.562500 0.000000
vt 1.000000 0.000000
vt 1.000000 0.062500
vt 0.937500 0.875000
vt 0.937500 0.687500
vt 0.875000 0.687500
vt 0.875000 0.875000
vt 0.937500 0.750000
vt 0.937500 0.812500
vt 0.875000 0.812500
vt 0.875000 0.750000
vt 0.812500 0.750000
vt 0.812500 0.812500
vt 0.937500 0.187500
vt 0.937500 0.000000
vt 0.875000 0.000000
vt 0.875000 0.187500
vt 0.937500 0.062500
vt 0.937500 0.125000
vt 0.875000 0.125000
vt 0.875000 0.062500
vt 0.812500 0.062500
vt 0.812500 0.125000
vt 0.875000 0.875000
vt 0.875000 0.687500
vt 0.937500 0.687500
vt 0.937500 0.875000
vt 0.937500 0.812500
vt 0.937500 0.750000
vt 1.000000 0.750000
vt 1.000000 0.812500
vt 0.812500 0.812500
vt 0.812500 0.750000
vt 0.875000 0.750000
vt 0.875000 0.812500
vt 0.875000 0.187500
vt 0.875000 0.000000
vt 0.937500 0.000000
vt 0.937500 0.187500
vt 0.937500 0.125000
vt 0.937500 0.062500
vt 1.000000 0.062500
vt 1.000000 0.125000
vt 0.812500 0.125000
vt 0.812500 0.062500
vt 0.875000 0.062500
vt 0.875000 0.125000
vt 0.437500 0.812500
vt 0.000000 0.812500
vt 1.000000 0.812500
vt 0.625000 0.812500
vt 0.437500 0.937500
vt 0.437500 0.875000
vt 0.000000 0.875000
vt 0.000000 0.937500
vt 1.000000 0.937500
vt 1.000000 0.875000
vt 0.625000 0.875000
vt 0.625000 0.937500
vt 0.437500 0.750000
vt 0.000000 0.750000
vt 1.000000 0.750000
vt 0.625000 0.750000
vt 1.000000 0.875000
vt 1.000000 0.812500
vt 0.000000 0.812500
vt 0.000000 0.875000
vt 1.000000 0.937500
vt 1.000000 0.875000
vt 0.000000 0.875000
vt 0.000000 0.937500
vt 0.062500 0.812500
vt 0.062500 0.750000
vt 0.000000 0.750000
vt 0.000000 0.812500
vt 0.375000 0.812500
vt 0.375000 0.750000
vt 0.250000 0.750000
vt 0.250000 0.812500
vt 0.750000 0.812500
vt 0.750000 0.750000
vt 0.625000 0.750000
vt 0.625000 0.812500
vt 1.000000 0.812500
vt 1.000000 0.750000
vt 0.937500 0.750000
vt 0.937500 0.812500
vt 0.000000 0.937500
vt 0.000000 0.875000
vt 1.000000 0.875000
vt 1.000000 0.937500
vt 0.000000 0.812500
vt 0.062500 0.750000
vt 0.062500 0.812500
vt 0.250000 0.812500
vt 0.250000 0.750000
vt 0.375000 0.750000
vt 0.375000 0.812500
vt 0.625000 0.812500
vt 0.625000 0.750000
vt 0.750000 0.750000
vt 0.750000 0.812500
vt 0.937500 0.812500
vt 0.937500 0.750000
vt 1.000000 0.812500
vt 0.000000 0.875000
vt 0.000000 0.812500
vt 1.000000 0.812500
vt 1.000000 0.875000
vt 0.000000 0.937500
vt 0.000000 0.875000
vt 0.375000 0.875000
vt 0.375000 0.937500
vt 0.562500 0.937500
vt 0.562500 0.875000
vt 1.000000 0.875000
vt 1.000000 0.937500
vt 0.000000 0.812500
vt 0.000000 0.750000
vt 0.375000 0.750000
vt 0.375000 0.812500
vt 0.562500 0.812500
vt 0.562500 0.750000
vt 1.000000 0.750000
vt 1.000000 0.812500
vt 0.000000 0.875000
vt 0.000000 0.812500
vt 0.375000 0.812500
vt 0.375000 0.875000
vt 0.562500 0.875000
vt 0.562500 0.812500
vt 1.000000 0.812500
vt 1.000000 0.875000
vt 0.812500 0.750000
vt 0.187500 0.750000
vt 0.187500 0.937500
vt 0.812500 0.937500
vt 0.812500 0.375000
vt 0.187500 0.375000
vt 0.187500 0.625000
vt 0.812500 0.625000
vt 0.812500 0.062500
vt 0.187500 0.062500
vt 0.187500 0.250000
vt 0.812500 0.250000
vt 0.750000 0.250000
vt 0.250000 0.250000
vt 0.250000 0.062500
vt 0.750000 0.062500
vt 0.250000 0.375000
vt 0.750000 0.375000
vt 0.750000 0.625000
vt 0.250000 0.625000
vt 0.250000 0.750000
vt 0.750000 0.750000
vt 0.750000 0.937500
vt 0.250000 0.937500
vt 0.812500 0.125000
vt 0.187500 0.125000
vt 0.187500 0.187500
vt 0.812500 0.187500
vt 0.812500 0.125000
vt 0.187500 0.125000
vt 0.187500 0.187500
vt 0.812500 0.187500
vt 0.812500 0.125000
vt 0.187500 0.125000
vt 0.187500 0.187500
vt 0.812500 0.187500
vt 0.187500 0.812500
vt 0.812500 0.812500
vt 0.812500 0.875000
vt 0.187500 0.875000
vt 0.187500 0.812500
vt 0.812500 0.812500
vt 0.812500 0.875000
vt 0.187500 0.875000
vt 0.187500 0.812500
vt 0.812500 0.812500
vt 0.812500 0.875000
vt 0.187500 0.875000
vn 0.0000 1.0000 0.0000
vn 0.0000 -1.0000 0.0000
vn -1.0000 0.0000 0.0000
vn 1.0000 0.0000 0.0000
vn 0.0000 0.0000 -1.0000
vn 0.0000 -0.0000 1.0000
g node_0_0_0_node_0_0_0_default:wood
usemtl default:wood
s 1
f 1/1/1 2/2/1 3/3/1 4/4/1
f 5/5/1 6/6/1 7/7/1 8/8/1
f 9/9/1 10/10/1 11/11/1 12/12/1
f 13/13/1 14/14/1 15/15/1 16/16/1
f 17/17/1 18/18/1 19/19/1 20/20/1
f 21/21/1 22/22/1 23/23/1 24/24/1
f 25/25/2 26/26/2 27/27/2 28/28/2
f 29/29/2 30/30/2 26/26/2 31/31/2
f 32/32/2 27/27/2 33/33/2 34/34/2
f 35/35/2 36/36/2 37/37/2 38/38/2
f 39/39/2 40/40/2 41/41/2 42/42/2
f 28/43/3 32/44/3 12/45/3 1/46/3
f 34/47/3 33/48/3 43/49/3 44/50/3
f 45/51/3 46/52/3 10/53/3 9/54/3
f 47/55/3 48/56/3 2/57/3 11/58/3
f 49/59/3 50/60/3 24/61/3 13/62/3
f 38/63/3 37/64/3 51/65/3 52/66/3
f 53/67/3 54/68/3 22/69/3 21/70/3
f 42/71/3 41/72/3 14/73/3 23/74/3
f 4/75/4 5/76/4 31/77/4 25/78/4
f 55/79/4 56/80/4 30/81/4 29/82/4
f 8/83/4 7/84/4 57/85/4 58/86/4
f 6/87/4 3/88/4 59/89/4 60/90/4
f 16/91/4 17/92/4 61/93/4 62/94/4
f 63/95/4 64/96/4 36/97/4 35/98/4
f 20/99/4 19/100/4 65/101/4 66/102/4
f 18/103/4 15/104/4 40/105/4 39/106/4
f 28/107/5 1/108/5 4/109/5 25/110/5
f 31/111/5 5/112/5 8/113/5 29/114/5
f 34/115/5 9/116/5 12/117/5 32/118/5
f 49/119/5 13/120/5 16/121/5 62/122/5
f 61/123/5 17/124/5 20/125/5 67/126/5
f 68/127/5 21/128/5 24/129/5 50/130/5
f 69/131/6 7/132/6 6/133/6 60/134/6
f 47/135/6 11/136/6 10/137/6 70/138/6
f 59/139/6 3/140/6 2/141/6 48/142/6
f 36/143/6 19/144/6 18/145/6 39/146/6
f 42/147/6 23/148/6 22/149/6 37/150/6
f 40/151/6 15/152/6 14/153/6 41/154/6
g node_0_0_0_node_0_0_0_default:junglewood
usemtl default:junglewood
f 58/155/1 57/156/1 71/157/1 72/158/1
f 73/159/1 74/160/1 46/161/1 45/162/1
f 60/163/1 59/164/1 75/165/1 76/166/1
f 77/167/1 78/168/1 48/169/1 47/170/1
f 79/171/1 80/172/1 81/173/1 82/174/1
f 83/175/1 84/176/1 85/177/1 86/178/1
f 87/179/1 88/180/1 89/181/1 90/182/1
f 91/183/1 92/184/1 93/185/1 94/186/1
f 95/187/1 96/188/1 97/189/1 98/190/1
f 99/191/1 100/192/1 101/193/1 102/194/1
f 103/195/1 104/196/1 105/197/1 106/198/1
f 107/199/1 108/200/1 109/201/1 110/202/1
f 62/203/1 61/204/1 111/205/1 112/206/1
f 113/207/1 114/208/1 50/209/1 49/210/1
f 66/211/1 65/212/1 115/213/1 116/214/1
f 117/215/1 118/216/1 54/217/1 53/218/1
f 119/219/2 120/220/2 56/221/2 55/222/2
f 44/223/2 43/224/2 121/225/2 122/226/2
f 123/227/2 124/228/2 125/229/2 126/230/2
f 127/231/2 128/232/2 129/233/2 130/234/2
f 131/235/2 132/236/2 133/237/2 134/238/2
f 135/239/2 136/240/2 137/241/2 138/242/2
f 139/243/2 140/244/2 64/245/2 63/246/2
f 52/247/2 51/248/2 141/249/2 142/250/2
f 122/251/3 129/252/3 92/253/3 73/254/3
f 126/230/3 125/229/3 130/255/3 121/256/3
f 74/257/3 91/258/3 78/259/3 77/260/3
f 134/261/3 141/262/3 118/263/3 107/264/3
f 138/242/3 137/241/3 142/265/3 133/266/3
f 108/267/3 117/268/3 114/269/3 113/270/3
f 72/271/4 81/272/4 128/273/4 119/274/4
f 120/275/4 127/276/4 124/277/4 123/278/4
f 76/279/4 75/280/4 82/281/4 71/282/4
f 98/283/4 115/284/4 140/285/4 131/286/4
f 132/287/4 139/288/4 136/289/4 135/290/4
f 112/291/4 111/292/4 116/293/4 97/294/4
f 55/222/5 58/295/5 72/296/5 119/219/5
f 122/226/5 73/297/5 45/298/5 44/223/5
f 30/299/5 56/300/5 120/301/5 123/302/5
f 126/303/5 121/304/5 43/305/5 33/306/5
f 57/156/5 69/307/5 76/308/5 71/157/5
f 74/160/5 77/309/5 70/310/5 46/161/5
f 134/311/5 107/312/5 98/313/5 131/314/5
f 138/315/5 133/316/5 132/317/5 135/318/5
f 96/319/5 143/320/5 112/321/5 97/322/5
f 100/323/5 144/324/5 145/325/5 101/326/5
f 104/327/5 146/328/5 147/329/5 105/330/5
f 108/331/5 113/332/5 148/333/5 109/334/5
f 124/335/6 127/336/6 130/337/6 125/338/6
f 82/339/6 75/165/6 149/340/6 79/341/6
f 86/342/6 150/343/6 151/344/6 83/345/6
f 90/346/6 152/347/6 153/348/6 87/349/6
f 94/350/6 154/351/6 78/168/6 91/352/6
f 128/353/6 81/354/6 92/355/6 129/356/6
f 136/357/6 139/358/6 63/359/6 35/360/6
f 38/361/6 52/362/6 142/363/6 137/364/6
f 116/365/6 111/366/6 67/367/6 66/368/6
f 53/369/6 68/370/6 114/371/6 117/372/6
f 140/373/6 115/374/6 65/375/6 64/376/6
f 51/377/6 54/378/6 118/379/6 141/380/6
g node_0_0_0_node_0_0_0_default:pine_wood
usemtl default:pine_wood
f 150/381/1 145/382/1 143/383/1 149/384/1
f 152/385/1 147/386/1 144/387/1 151/388/1
f 154/389/1 148/390/1 146/391/1 153/392/1
f 80/393/2 95/394/2 102/395/2 85/396/2
f 84/397/2 99/398/2 106/399/2 89/400/2
f 88/401/2 103/402/2 110/403/2 93/404/2
f 86/405/3 101/406/3 145/407/3 150/408/3
f 90/409/3 105/410/3 147/411/3 152/412/3
f 94/413/3 109/414/3 148/415/3 154/416/3
f 149/417/4 143/418/4 96/419/4 79/420/4
f 151/421/4 144/422/4 100/423/4 83/424/4
f 153/425/4 146/426/4 104/427/4 87/428/4
