# Blender v3.1.2 OBJ File: ''
# www.blender.org
mtllib pole_scaffolding_ladder.mtl
o node_0_0_0.005
v 0.375000 0.500000 -0.500000
v 0.375000 0.500000 -0.312500
v 0.437500 0.500000 -0.312500
v 0.437500 0.500000 -0.500000
v -0.437500 0.500000 -0.500000
v -0.437500 0.500000 -0.312500
v -0.375000 0.500000 -0.312500
v -0.375000 0.500000 -0.500000
v 0.437500 0.500000 -0.437500
v 0.437500 0.500000 -0.375000
v 0.500000 0.500000 -0.375000
v 0.500000 0.500000 -0.437500
v 0.312500 0.500000 -0.437500
v 0.312500 0.500000 -0.375000
v 0.375000 0.500000 -0.375000
v 0.375000 0.500000 -0.437500
v -0.375000 0.500000 -0.437500
v -0.375000 0.500000 -0.375000
v -0.312500 0.500000 -0.375000
v -0.312500 0.500000 -0.437500
v -0.500000 0.500000 -0.437500
v -0.500000 0.500000 -0.375000
v -0.437500 0.500000 -0.375000
v -0.437500 0.500000 -0.437500
v 0.375000 0.500000 0.312500
v 0.375000 0.500000 0.500000
v 0.437500 0.500000 0.500000
v 0.437500 0.500000 0.312500
v -0.437500 0.500000 0.312500
v -0.437500 0.500000 0.500000
v -0.375000 0.500000 0.500000
v -0.375000 0.500000 0.312500
v 0.437500 0.500000 0.375000
v 0.437500 0.500000 0.437500
v 0.500000 0.500000 0.437500
v 0.500000 0.500000 0.375000
v 0.312500 0.500000 0.375000
v 0.312500 0.500000 0.437500
v 0.375000 0.500000 0.437500
v 0.375000 0.500000 0.375000
v -0.375000 0.500000 0.375000
v -0.375000 0.500000 0.437500
v -0.312500 0.500000 0.437500
v -0.312500 0.500000 0.375000
v -0.500000 0.500000 0.375000
v -0.500000 0.500000 0.437500
v -0.437500 0.500000 0.437500
v -0.437500 0.500000 0.375000
v 0.437500 -0.500000 -0.500000
v 0.437500 -0.500000 -0.375000
v 0.375000 -0.500000 -0.375000
v 0.375000 -0.500000 -0.500000
v -0.375000 -0.500000 -0.500000
v -0.375000 -0.500000 -0.375000
v -0.437500 -0.500000 -0.375000
v -0.437500 -0.500000 -0.500000
v 0.500000 -0.500000 -0.437500
v 0.500000 -0.500000 -0.375000
v 0.437500 -0.500000 -0.437500
v 0.375000 -0.500000 -0.437500
v 0.312500 -0.500000 -0.375000
v 0.312500 -0.500000 -0.437500
v -0.312500 -0.500000 -0.437500
v -0.312500 -0.500000 -0.375000
v -0.375000 -0.500000 -0.437500
v -0.437500 -0.500000 -0.437500
v -0.500000 -0.500000 -0.375000
v -0.500000 -0.500000 -0.437500
v 0.500000 -0.500000 0.375000
v 0.500000 -0.500000 0.437500
v 0.312500 -0.500000 0.437500
v 0.312500 -0.500000 0.375000
v -0.312500 -0.500000 0.375000
v -0.312500 -0.500000 0.437500
v -0.500000 -0.500000 0.437500
v -0.500000 -0.500000 0.375000
v 0.437500 -0.500000 0.437500
v 0.437500 -0.500000 0.500000
v 0.375000 -0.500000 0.500000
v 0.375000 -0.500000 0.437500
v -0.375000 -0.500000 0.437500
v -0.375000 -0.500000 0.500000
v -0.437500 -0.500000 0.500000
v -0.437500 -0.500000 0.437500
v 0.312500 -0.437500 -0.375000
v 0.312500 -0.437500 -0.437500
v 0.312500 -0.375000 -0.437500
v 0.312500 -0.375000 -0.375000
v 0.375000 -0.312500 -0.375000
v 0.375000 -0.312500 -0.312500
v -0.437500 -0.312500 -0.375000
v -0.437500 -0.312500 -0.312500
v 0.375000 -0.312500 0.312500
v 0.375000 -0.312500 0.375000
v 0.375000 -0.187500 0.375000
v 0.375000 -0.187500 0.312500
v -0.437500 -0.312500 0.312500
v -0.437500 -0.312500 0.375000
v -0.437500 -0.187500 0.375000
v -0.437500 -0.187500 0.312500
v 0.375000 -0.000000 0.312500
v 0.375000 -0.000000 0.375000
v 0.375000 0.125000 0.375000
v 0.375000 0.125000 0.312500
v -0.437500 -0.000000 0.312500
v -0.437500 -0.000000 0.375000
v -0.437500 0.125000 0.375000
v -0.437500 0.125000 0.312500
v 0.375000 0.312500 0.312500
v 0.375000 0.312500 0.375000
v -0.437500 0.312500 0.312500
v -0.437500 0.312500 0.375000
v 0.312500 -0.437500 0.437500
v 0.312500 -0.437500 0.375000
v 0.312500 -0.375000 0.375000
v 0.312500 -0.375000 0.437500
v -0.312500 -0.437500 -0.437500
v -0.312500 -0.437500 -0.375000
v -0.312500 -0.375000 -0.375000
v -0.312500 -0.375000 -0.437500
v 0.437500 -0.312500 -0.312500
v 0.437500 -0.312500 -0.375000
v -0.375000 -0.312500 -0.312500
v -0.375000 -0.312500 -0.375000
v 0.437500 -0.187500 0.312500
v 0.437500 -0.187500 0.375000
v 0.437500 -0.312500 0.375000
v 0.437500 -0.312500 0.312500
v -0.375000 -0.187500 0.312500
v -0.375000 -0.187500 0.375000
v -0.375000 -0.312500 0.375000
v -0.375000 -0.312500 0.312500
v 0.437500 0.125000 0.312500
v 0.437500 0.125000 0.375000
v 0.437500 -0.000000 0.375000
v 0.437500 -0.000000 0.312500
v -0.375000 0.125000 0.312500
v -0.375000 0.125000 0.375000
v -0.375000 -0.000000 0.375000
v -0.375000 -0.000000 0.312500
v 0.437500 0.312500 0.375000
v 0.437500 0.312500 0.312500
v -0.375000 0.312500 0.375000
v -0.375000 0.312500 0.312500
v -0.312500 -0.437500 0.375000
v -0.312500 -0.437500 0.437500
v -0.312500 -0.375000 0.437500
v -0.312500 -0.375000 0.375000
v 0.500000 -0.187500 0.375000
v 0.500000 -0.312500 0.375000
v 0.312500 -0.312500 0.375000
v 0.312500 -0.187500 0.375000
v -0.312500 -0.187500 0.375000
v -0.312500 -0.312500 0.375000
v -0.500000 -0.312500 0.375000
v -0.500000 -0.187500 0.375000
v 0.500000 0.125000 0.375000
v 0.500000 -0.000000 0.375000
v 0.312500 -0.000000 0.375000
v 0.312500 0.125000 0.375000
v -0.312500 0.125000 0.375000
v -0.312500 -0.000000 0.375000
v -0.500000 -0.000000 0.375000
v -0.500000 0.125000 0.375000
v 0.500000 0.312500 0.375000
v 0.312500 0.312500 0.375000
v -0.312500 0.312500 0.375000
v -0.500000 0.312500 0.375000
v 0.500000 -0.312500 -0.375000
v 0.312500 -0.312500 -0.375000
v -0.312500 -0.312500 -0.375000
v -0.500000 -0.312500 -0.375000
v 0.500000 -0.312500 -0.312500
v -0.500000 -0.312500 -0.312500
v -0.500000 -0.375000 -0.312500
v -0.500000 -0.375000 -0.250000
v 0.500000 -0.375000 -0.250000
v 0.500000 -0.375000 -0.312500
v -0.500000 -0.375000 0.250000
v -0.500000 -0.375000 0.312500
v 0.500000 -0.375000 0.312500
v 0.500000 -0.375000 0.250000
v 0.500000 -0.312500 0.312500
v -0.500000 -0.312500 0.312500
v 0.500000 -0.000000 0.312500
v -0.500000 -0.000000 0.312500
v 0.500000 0.312500 0.312500
v -0.500000 0.312500 0.312500
v 0.500000 -0.500000 -0.312500
v -0.500000 -0.500000 -0.312500
v 0.500000 -0.437500 -0.312500
v 0.500000 -0.437500 -0.250000
v -0.500000 -0.437500 -0.250000
v -0.500000 -0.437500 -0.312500
v 0.500000 -0.437500 0.250000
v 0.500000 -0.437500 0.312500
v -0.500000 -0.437500 0.312500
v -0.500000 -0.437500 0.250000
v 0.500000 -0.500000 0.312500
v -0.500000 -0.500000 0.312500
v 0.500000 -0.187500 0.312500
v -0.500000 -0.187500 0.312500
v 0.500000 0.125000 0.312500
v -0.500000 0.125000 0.312500
v -0.500000 -0.437500 0.375000
v -0.500000 -0.375000 0.375000
v 0.500000 -0.375000 0.375000
v 0.500000 -0.437500 0.375000
vt 0.875000 0.000000
vt 0.875000 0.187500
vt 0.937500 0.187500
vt 0.937500 0.000000
vt 0.062500 0.000000
vt 0.062500 0.187500
vt 0.125000 0.187500
vt 0.125000 0.000000
vt 0.937500 0.062500
vt 0.937500 0.125000
vt 1.000000 0.125000
vt 1.000000 0.062500
vt 0.812500 0.062500
vt 0.812500 0.125000
vt 0.875000 0.125000
vt 0.875000 0.062500
vt 0.125000 0.062500
vt 0.125000 0.125000
vt 0.187500 0.125000
vt 0.187500 0.062500
vt 0.000000 0.062500
vt 0.000000 0.125000
vt 0.062500 0.125000
vt 0.062500 0.062500
vt 0.875000 0.812500
vt 0.875000 1.000000
vt 0.937500 1.000000
vt 0.937500 0.812500
vt 0.062500 0.812500
vt 0.062500 1.000000
vt 0.125000 1.000000
vt 0.125000 0.812500
vt 0.937500 0.875000
vt 0.937500 0.937500
vt 1.000000 0.937500
vt 1.000000 0.875000
vt 0.812500 0.875000
vt 0.812500 0.937500
vt 0.875000 0.937500
vt 0.875000 0.875000
vt 0.125000 0.875000
vt 0.125000 0.937500
vt 0.187500 0.937500
vt 0.187500 0.875000
vt 0.000000 0.875000
vt 0.000000 0.937500
vt 0.062500 0.937500
vt 0.062500 0.875000
vt 0.937500 0.000000
vt 0.937500 0.125000
vt 0.875000 0.125000
vt 0.875000 0.000000
vt 0.125000 0.000000
vt 0.125000 0.125000
vt 0.062500 0.125000
vt 0.062500 0.000000
vt 1.000000 0.062500
vt 1.000000 0.125000
vt 0.937500 0.062500
vt 0.875000 0.062500
vt 0.812500 0.125000
vt 0.812500 0.062500
vt 0.187500 0.062500
vt 0.187500 0.125000
vt 0.125000 0.062500
vt 0.062500 0.062500
vt 0.000000 0.125000
vt 0.000000 0.062500
vt 1.000000 0.875000
vt 1.000000 0.937500
vt 0.812500 0.937500
vt 0.812500 0.875000
vt 0.187500 0.875000
vt 0.187500 0.937500
vt 0.000000 0.937500
vt 0.000000 0.875000
vt 0.937500 0.937500
vt 0.937500 1.000000
vt 0.875000 1.000000
vt 0.875000 0.937500
vt 0.125000 0.937500
vt 0.125000 1.000000
vt 0.062500 1.000000
vt 0.062500 0.937500
vt 0.000000 0.000000
vt 0.000000 0.062500
vt 1.000000 0.062500
vt 1.000000 0.000000
vt 0.000000 0.000000
vt 0.000000 0.062500
vt 1.000000 0.062500
vt 1.000000 0.000000
vt 0.000000 0.062500
vt 0.000000 0.125000
vt 0.062500 0.125000
vt 0.062500 0.062500
vt 1.000000 0.125000
vt 1.000000 0.062500
vt 0.125000 0.062500
vt 0.125000 0.125000
vt 1.000000 0.125000
vt 1.000000 0.062500
vt 0.187500 0.125000
vt 0.187500 0.187500
vt 1.000000 0.187500
vt 1.000000 0.125000
vt 0.187500 0.125000
vt 0.187500 0.187500
vt 1.000000 0.187500
vt 1.000000 0.125000
vt 0.187500 0.812500
vt 0.187500 0.875000
vt 0.312500 0.875000
vt 0.312500 0.812500
vt 0.187500 0.812500
vt 0.187500 0.875000
vt 0.312500 0.875000
vt 0.312500 0.812500
vt 0.500000 0.812500
vt 0.500000 0.875000
vt 0.625000 0.875000
vt 0.625000 0.812500
vt 0.500000 0.812500
vt 0.500000 0.875000
vt 0.625000 0.875000
vt 0.625000 0.812500
vt 0.812500 0.812500
vt 0.812500 0.875000
vt 1.000000 0.875000
vt 1.000000 0.812500
vt 0.812500 0.812500
vt 0.812500 0.875000
vt 1.000000 0.875000
vt 1.000000 0.812500
vt 0.000000 0.875000
vt 0.000000 0.937500
vt 0.062500 0.937500
vt 0.062500 0.875000
vt 1.000000 0.937500
vt 1.000000 0.875000
vt 0.125000 0.875000
vt 0.125000 0.937500
vt 1.000000 0.937500
vt 1.000000 0.875000
vt 0.000000 0.937500
vt 0.000000 1.000000
vt 1.000000 1.000000
vt 1.000000 0.937500
vt 0.000000 0.937500
vt 0.000000 1.000000
vt 1.000000 1.000000
vt 1.000000 0.937500
vt 1.000000 0.000000
vt 1.000000 0.062500
vt 0.000000 0.062500
vt 0.000000 0.000000
vt 1.000000 0.000000
vt 1.000000 0.062500
vt 0.000000 0.062500
vt 0.000000 0.000000
vt 0.000000 0.125000
vt 0.000000 0.062500
vt 0.062500 0.062500
vt 0.062500 0.125000
vt 0.000000 0.125000
vt 0.000000 0.062500
vt 1.000000 0.062500
vt 1.000000 0.125000
vt 0.125000 0.125000
vt 0.125000 0.062500
vt 1.000000 0.125000
vt 1.000000 0.187500
vt 0.187500 0.187500
vt 0.187500 0.125000
vt 1.000000 0.125000
vt 1.000000 0.187500
vt 0.187500 0.187500
vt 0.187500 0.125000
vt 0.312500 0.812500
vt 0.312500 0.875000
vt 0.187500 0.875000
vt 0.187500 0.812500
vt 0.312500 0.812500
vt 0.312500 0.875000
vt 0.187500 0.875000
vt 0.187500 0.812500
vt 0.625000 0.812500
vt 0.625000 0.875000
vt 0.500000 0.875000
vt 0.500000 0.812500
vt 0.625000 0.812500
vt 0.625000 0.875000
vt 0.500000 0.875000
vt 0.500000 0.812500
vt 1.000000 0.812500
vt 1.000000 0.875000
vt 0.812500 0.875000
vt 0.812500 0.812500
vt 1.000000 0.812500
vt 1.000000 0.875000
vt 0.812500 0.875000
vt 0.812500 0.812500
vt 0.000000 0.937500
vt 0.000000 0.875000
vt 0.062500 0.875000
vt 0.062500 0.937500
vt 0.000000 0.937500
vt 0.000000 0.875000
vt 1.000000 0.875000
vt 1.000000 0.937500
vt 0.125000 0.937500
vt 0.125000 0.875000
vt 1.000000 0.937500
vt 1.000000 1.000000
vt 0.000000 1.000000
vt 0.000000 0.937500
vt 1.000000 0.937500
vt 1.000000 1.000000
vt 0.000000 1.000000
vt 0.000000 0.937500
vt 0.000000 0.125000
vt 1.000000 0.125000
vt 1.000000 0.062500
vt 0.000000 0.062500
vt 0.000000 0.937500
vt 1.000000 0.937500
vt 1.000000 0.875000
vt 0.000000 0.875000
vt 1.000000 0.000000
vt 0.000000 0.000000
vt 0.000000 0.187500
vt 1.000000 0.187500
vt 1.000000 0.125000
vt 0.000000 0.125000
vt 0.000000 0.875000
vt 1.000000 0.875000
vt 1.000000 0.812500
vt 0.000000 0.812500
vt 0.000000 1.000000
vt 1.000000 1.000000
vt 1.000000 0.937500
vt 0.000000 0.937500
vt 0.125000 0.125000
vt 0.250000 0.125000
vt 0.250000 0.062500
vt 0.125000 0.062500
vt 0.125000 0.937500
vt 0.250000 0.937500
vt 0.250000 0.875000
vt 0.125000 0.875000
vt 0.437500 0.125000
vt 0.562500 0.125000
vt 0.562500 0.062500
vt 0.437500 0.062500
vt 0.437500 0.937500
vt 0.562500 0.937500
vt 0.562500 0.875000
vt 0.437500 0.875000
vt 0.750000 0.125000
vt 0.937500 0.125000
vt 0.937500 0.062500
vt 0.750000 0.062500
vt 0.750000 0.937500
vt 0.937500 0.937500
vt 0.937500 0.875000
vt 0.750000 0.875000
vt 0.125000 0.062500
vt 0.250000 0.062500
vt 0.250000 0.000000
vt 0.125000 0.000000
vt 0.125000 0.187500
vt 0.250000 0.187500
vt 0.250000 0.125000
vt 0.125000 0.125000
vt 0.125000 0.875000
vt 0.250000 0.875000
vt 0.250000 0.812500
vt 0.125000 0.812500
vt 0.125000 1.000000
vt 0.250000 1.000000
vt 0.250000 0.937500
vt 0.125000 0.937500
vt 0.437500 0.062500
vt 0.562500 0.062500
vt 0.562500 0.000000
vt 0.437500 0.000000
vt 0.437500 0.187500
vt 0.562500 0.187500
vt 0.562500 0.125000
vt 0.437500 0.125000
vt 0.437500 0.875000
vt 0.562500 0.875000
vt 0.562500 0.812500
vt 0.437500 0.812500
vt 0.437500 1.000000
vt 0.562500 1.000000
vt 0.562500 0.937500
vt 0.437500 0.937500
vt 0.750000 0.062500
vt 0.937500 0.062500
vt 0.937500 0.000000
vt 0.750000 0.000000
vt 0.750000 0.187500
vt 0.937500 0.187500
vt 0.937500 0.125000
vt 0.750000 0.125000
vt 0.750000 0.875000
vt 0.937500 0.875000
vt 0.937500 0.812500
vt 0.750000 0.812500
vt 0.750000 1.000000
vt 0.937500 1.000000
vt 0.937500 0.937500
vt 0.750000 0.937500
vt 0.125000 0.000000
vt 0.937500 0.000000
vt 0.937500 0.062500
vt 0.125000 0.062500
vt 0.125000 0.125000
vt 0.937500 0.125000
vt 0.937500 0.187500
vt 0.125000 0.187500
vt 0.125000 0.812500
vt 0.937500 0.812500
vt 0.937500 0.875000
vt 0.125000 0.875000
vt 0.125000 0.937500
vt 0.937500 0.937500
vt 0.937500 1.000000
vt 0.125000 1.000000
vt 0.125000 0.062500
vt 0.937500 0.062500
vt 0.937500 0.125000
vt 0.125000 0.125000
vt 0.125000 0.875000
vt 0.937500 0.875000
vt 0.937500 0.937500
vt 0.125000 0.937500
vt 0.000000 0.000000
vt 1.000000 0.000000
vt 1.000000 0.062500
vt 0.000000 0.062500
vt 0.000000 0.125000
vt 1.000000 0.125000
vt 1.000000 0.187500
vt 0.000000 0.187500
vt 0.000000 0.812500
vt 1.000000 0.812500
vt 1.000000 0.875000
vt 0.000000 0.875000
vt 1.000000 1.000000
vt 0.000000 1.000000
vt 0.000000 0.062500
vt 1.000000 0.062500
vt 1.000000 0.125000
vt 0.000000 0.125000
vt 0.000000 0.875000
vt 1.000000 0.875000
vt 1.000000 0.937500
vt 0.000000 0.937500
vt 0.187500 0.062500
vt 0.187500 0.125000
vt 0.812500 0.125000
vt 0.812500 0.062500
vt 0.937500 0.125000
vt 0.937500 0.187500
vt 1.000000 0.187500
vt 1.000000 0.125000
vt 0.125000 0.125000
vt 0.125000 0.187500
vt 0.875000 0.187500
vt 0.875000 0.125000
vt 0.000000 0.125000
vt 0.000000 0.187500
vt 0.062500 0.187500
vt 0.062500 0.125000
vt 0.000000 0.187500
vt 0.000000 0.250000
vt 1.000000 0.250000
vt 1.000000 0.187500
vt 0.000000 0.750000
vt 0.000000 0.812500
vt 1.000000 0.812500
vt 1.000000 0.750000
vt 0.937500 0.812500
vt 0.937500 0.875000
vt 1.000000 0.875000
vt 1.000000 0.812500
vt 0.125000 0.812500
vt 0.875000 0.875000
vt 0.875000 0.812500
vt 0.000000 0.812500
vt 0.000000 0.875000
vt 0.062500 0.875000
vt 0.062500 0.812500
vt 0.187500 0.875000
vt 0.187500 0.937500
vt 0.812500 0.937500
vt 0.812500 0.875000
vt 0.812500 0.062500
vt 0.812500 0.125000
vt 0.187500 0.125000
vt 0.187500 0.062500
vt 1.000000 0.187500
vt 0.000000 0.187500
vt 1.000000 0.187500
vt 1.000000 0.250000
vt 0.000000 0.250000
vt 0.000000 0.187500
vt 1.000000 0.750000
vt 1.000000 0.812500
vt 0.000000 0.812500
vt 0.000000 0.750000
vt 1.000000 0.812500
vt 0.000000 0.812500
vt 0.812500 0.875000
vt 0.812500 0.937500
vt 0.187500 0.937500
vt 0.187500 0.875000
vt 0.187500 0.187500
vt 0.187500 0.125000
vt 0.062500 0.187500
vt 0.062500 0.250000
vt 0.125000 0.250000
vt 0.125000 0.187500
vt 0.062500 0.750000
vt 0.062500 0.875000
vt 0.125000 0.875000
vt 0.125000 0.750000
vt 0.062500 0.812500
vt 0.125000 0.812500
vt 0.187500 0.875000
vt 0.187500 0.812500
vt 0.187500 0.125000
vt 0.187500 0.187500
vt 0.000000 0.187500
vt 0.125000 0.187500
vt 0.125000 0.250000
vt 0.062500 0.250000
vt 0.062500 0.187500
vt 0.125000 0.750000
vt 0.125000 0.875000
vt 0.062500 0.875000
vt 0.062500 0.750000
vt 0.062500 0.812500
vt 0.000000 0.812500
vt 0.187500 0.812500
vt 0.187500 0.875000
vt 0.125000 0.812500
vt 0.812500 0.875000
vt 0.812500 0.812500
vt 0.187500 0.812500
vt 0.187500 0.875000
vt 0.812500 0.937500
vt 0.812500 0.875000
vt 0.187500 0.875000
vt 0.187500 0.937500
vt 0.812500 0.812500
vt 0.812500 0.750000
vt 0.187500 0.750000
vt 0.187500 0.812500
vt 0.000000 0.062500
vt 0.000000 0.125000
vt 1.000000 0.125000
vt 1.000000 0.062500
vt 0.000000 0.000000
vt 0.000000 0.062500
vt 1.000000 0.062500
vt 1.000000 0.000000
vt 0.000000 0.125000
vt 0.000000 0.187500
vt 1.000000 0.187500
vt 1.000000 0.125000
vt 1.000000 0.000000
vt 1.000000 0.062500
vt 0.000000 0.062500
vt 0.000000 0.000000
vt 1.000000 0.125000
vt 0.000000 0.125000
vt 1.000000 0.062500
vt 1.000000 0.125000
vt 0.000000 0.125000
vt 0.000000 0.062500
vt 0.812500 0.000000
vt 0.812500 0.062500
vt 0.187500 0.062500
vt 0.187500 0.000000
vt 0.812500 0.125000
vt 0.812500 0.187500
vt 0.187500 0.187500
vt 0.187500 0.125000
vt 0.812500 0.062500
vt 0.812500 0.125000
vt 0.187500 0.125000
vt 0.187500 0.062500
vt 0.937500 0.812500
vt 0.937500 0.875000
vt 1.000000 0.875000
vt 1.000000 0.812500
vt 0.125000 0.812500
vt 0.125000 0.875000
vt 0.875000 0.875000
vt 0.875000 0.812500
vt 0.000000 0.812500
vt 0.000000 0.875000
vt 0.062500 0.875000
vt 0.062500 0.812500
vt 0.937500 0.812500
vt 0.937500 0.875000
vt 1.000000 0.875000
vt 1.000000 0.812500
vt 0.125000 0.812500
vt 0.125000 0.875000
vt 0.875000 0.875000
vt 0.875000 0.812500
vt 0.000000 0.812500
vt 0.000000 0.875000
vt 0.062500 0.875000
vt 0.062500 0.812500
vt 1.000000 0.812500
vt 1.000000 0.875000
vt 0.937500 0.875000
vt 0.937500 0.812500
vt 0.875000 0.812500
vt 0.875000 0.875000
vt 0.125000 0.875000
vt 0.125000 0.812500
vt 0.062500 0.812500
vt 0.062500 0.875000
vt 0.000000 0.875000
vt 0.000000 0.812500
vt 1.000000 0.812500
vt 1.000000 0.875000
vt 0.937500 0.875000
vt 0.937500 0.812500
vt 0.875000 0.812500
vt 0.875000 0.875000
vt 0.125000 0.875000
vt 0.125000 0.812500
vt 0.062500 0.812500
vt 0.062500 0.875000
vt 0.000000 0.875000
vt 0.000000 0.812500
vt 0.312500 0.812500
vt 0.312500 0.875000
vt 0.500000 0.875000
vt 0.500000 0.812500
vt 0.625000 0.812500
vt 0.625000 0.875000
vt 0.812500 0.875000
vt 0.812500 0.812500
vt 0.500000 0.812500
vt 0.500000 0.875000
vt 0.312500 0.875000
vt 0.312500 0.812500
vt 0.812500 0.812500
vt 0.812500 0.875000
vt 0.625000 0.875000
vt 0.625000 0.812500
vt 1.000000 0.625000
vt 1.000000 0.437500
vt 0.000000 0.437500
vt 0.000000 0.625000
vt 1.000000 0.312500
vt 1.000000 0.125000
vt 0.000000 0.125000
vt 0.000000 0.312500
vt 0.812500 0.312500
vt 0.812500 0.500000
vt 0.187500 0.500000
vt 0.187500 0.312500
vt 0.812500 0.625000
vt 0.812500 0.812500
vt 0.187500 0.812500
vt 0.187500 0.625000
vn 0.0000 1.0000 0.0000
vn 0.0000 -1.0000 0.0000
vn -1.0000 0.0000 0.0000
vn 1.0000 0.0000 0.0000
vn 0.0000 0.0000 -1.0000
vn 0.0000 -0.0000 1.0000
g node_0_0_0.005_node_0_0_0.005_default:wood.005
usemtl default:wood.005
s 1
f 1/1/1 2/2/1 3/3/1 4/4/1
f 5/5/1 6/6/1 7/7/1 8/8/1
f 9/9/1 10/10/1 11/11/1 12/12/1
f 13/13/1 14/14/1 15/15/1 16/16/1
f 17/17/1 18/18/1 19/19/1 20/20/1
f 21/21/1 22/22/1 23/23/1 24/24/1
f 25/25/1 26/26/1 27/27/1 28/28/1
f 29/29/1 30/30/1 31/31/1 32/32/1
f 33/33/1 34/34/1 35/35/1 36/36/1
f 37/37/1 38/38/1 39/39/1 40/40/1
f 41/41/1 42/42/1 43/43/1 44/44/1
f 45/45/1 46/46/1 47/47/1 48/48/1
f 49/49/2 50/50/2 51/51/2 52/52/2
f 53/53/2 54/54/2 55/55/2 56/56/2
f 57/57/2 58/58/2 50/50/2 59/59/2
f 60/60/2 51/51/2 61/61/2 62/62/2
f 63/63/2 64/64/2 54/54/2 65/65/2
f 66/66/2 55/55/2 67/67/2 68/68/2
f 69/69/2 70/70/2 71/71/2 72/72/2
f 73/73/2 74/74/2 75/75/2 76/76/2
f 77/77/2 78/78/2 79/79/2 80/80/2
f 81/81/2 82/82/2 83/83/2 84/84/2
f 52/85/3 60/86/3 16/87/3 1/88/3
f 56/89/3 66/90/3 24/91/3 5/92/3
f 62/93/3 61/94/3 85/95/3 86/96/3
f 68/68/3 67/67/3 22/97/3 21/98/3
f 87/99/3 88/100/3 14/101/3 13/102/3
f 89/103/3 90/104/3 2/105/3 15/106/3
f 91/107/3 92/108/3 6/109/3 23/110/3
f 93/111/3 94/112/3 95/113/3 96/114/3
f 97/115/3 98/116/3 99/117/3 100/118/3
f 101/119/3 102/120/3 103/121/3 104/122/3
f 105/123/3 106/124/3 107/125/3 108/126/3
f 109/127/3 110/128/3 40/129/3 25/130/3
f 111/131/3 112/132/3 48/133/3 29/134/3
f 72/135/3 71/136/3 113/137/3 114/138/3
f 76/76/3 75/75/3 46/139/3 45/140/3
f 115/141/3 116/142/3 38/143/3 37/144/3
f 80/145/3 79/146/3 26/147/3 39/148/3
f 84/149/3 83/150/3 30/151/3 47/152/3
f 4/153/4 9/154/4 59/155/4 49/156/4
f 8/157/4 17/158/4 65/159/4 53/160/4
f 12/12/4 11/11/4 58/161/4 57/162/4
f 117/163/4 118/164/4 64/165/4 63/166/4
f 20/167/4 19/168/4 119/169/4 120/170/4
f 10/171/4 3/172/4 121/173/4 122/174/4
f 18/175/4 7/176/4 123/177/4 124/178/4
f 125/179/4 126/180/4 127/181/4 128/182/4
f 129/183/4 130/184/4 131/185/4 132/186/4
f 133/187/4 134/188/4 135/189/4 136/190/4
f 137/191/4 138/192/4 139/193/4 140/194/4
f 28/195/4 33/196/4 141/197/4 142/198/4
f 32/199/4 41/200/4 143/201/4 144/202/4
f 36/36/4 35/35/4 70/203/4 69/204/4
f 145/205/4 146/206/4 74/207/4 73/208/4
f 44/209/4 43/210/4 147/211/4 148/212/4
f 34/213/4 27/214/4 78/215/4 77/216/4
f 42/217/4 31/218/4 82/219/4 81/220/4
f 52/221/5 1/222/5 4/223/5 49/224/5
f 56/225/5 5/226/5 8/227/5 53/228/5
f 59/155/5 9/154/5 12/229/5 57/230/5
f 62/231/5 13/232/5 16/233/5 60/234/5
f 65/235/5 17/236/5 20/237/5 63/238/5
f 68/239/5 21/240/5 24/241/5 66/242/5
f 93/243/5 96/244/5 125/245/5 128/246/5
f 97/247/5 100/248/5 129/249/5 132/250/5
f 101/251/5 104/252/5 133/253/5 136/254/5
f 105/255/5 108/256/5 137/257/5 140/258/5
f 109/259/5 25/260/5 28/261/5 142/262/5
f 111/263/5 29/264/5 32/265/5 144/266/5
f 127/267/5 126/268/5 149/269/5 150/270/5
f 151/271/5 152/272/5 95/273/5 94/274/5
f 131/275/5 130/276/5 153/277/5 154/278/5
f 155/279/5 156/280/5 99/281/5 98/282/5
f 135/283/5 134/284/5 157/285/5 158/286/5
f 159/287/5 160/288/5 103/289/5 102/290/5
f 139/291/5 138/292/5 161/293/5 162/294/5
f 163/295/5 164/296/5 107/297/5 106/298/5
f 141/299/5 33/300/5 36/301/5 165/302/5
f 166/303/5 37/304/5 40/305/5 110/306/5
f 143/307/5 41/308/5 44/309/5 167/310/5
f 168/311/5 45/312/5 48/313/5 112/314/5
f 169/315/6 11/316/6 10/317/6 122/318/6
f 89/319/6 15/320/6 14/321/6 170/322/6
f 171/323/6 19/324/6 18/325/6 124/326/6
f 91/327/6 23/328/6 22/329/6 172/330/6
f 121/331/6 3/332/6 2/333/6 90/334/6
f 123/335/6 7/336/6 6/337/6 92/338/6
f 70/339/6 35/340/6 34/341/6 77/342/6
f 80/343/6 39/344/6 38/345/6 71/346/6
f 74/347/6 43/348/6 42/349/6 81/350/6
f 84/149/6 47/152/6 46/351/6 75/352/6
f 78/353/6 27/354/6 26/355/6 79/356/6
f 82/357/6 31/358/6 30/359/6 83/360/6
g node_0_0_0.005_node_0_0_0.005_default:junglewood.004
usemtl default:junglewood.004
f 120/361/1 119/362/1 88/363/1 87/364/1
f 122/365/1 121/366/1 173/367/1 169/368/1
f 124/369/1 123/370/1 90/371/1 89/372/1
f 172/373/1 174/374/1 92/375/1 91/376/1
f 175/377/1 176/378/1 177/379/1 178/380/1
f 179/381/1 180/382/1 181/383/1 182/384/1
f 128/385/1 127/386/1 150/387/1 183/388/1
f 132/389/1 131/275/1 94/390/1 93/391/1
f 184/392/1 155/393/1 98/394/1 97/395/1
f 148/396/1 147/397/1 116/398/1 115/399/1
f 86/400/2 85/401/2 118/402/2 117/403/2
f 58/58/2 189/404/2 190/405/2 67/67/2
f 191/406/2 192/407/2 193/408/2 194/409/2
f 195/410/2 196/411/2 197/412/2 198/413/2
f 199/414/2 69/69/2 76/76/2 200/415/2
f 114/416/2 113/417/2 146/418/2 145/419/2
f 67/67/3 190/405/3 174/420/3 172/421/3
f 194/422/3 193/423/3 176/424/3 175/425/3
f 198/426/3 205/427/3 206/428/3 179/429/3
f 200/415/3 76/76/3 205/427/3 197/430/3
f 180/431/3 206/428/3 155/432/3 184/433/3
f 169/434/4 173/435/4 189/436/4 58/161/4
f 178/437/4 177/438/4 192/439/4 191/440/4
f 182/441/4 207/442/4 208/443/4 195/444/4
f 196/445/4 208/443/4 69/204/4 199/446/4
f 183/447/4 150/448/4 207/442/4 181/449/4
f 117/450/5 120/451/5 87/452/5 86/453/5
f 64/454/5 118/455/5 85/456/5 61/457/5
f 119/458/5 171/459/5 170/460/5 88/461/5
f 198/462/5 179/463/5 182/464/5 195/465/5
f 200/466/5 197/467/5 196/468/5 199/469/5
f 180/470/5 184/471/5 183/472/5 181/473/5
f 189/474/6 191/475/6 194/476/6 190/477/6
f 178/478/6 173/367/6 174/374/6 175/479/6
f 192/480/6 177/481/6 176/482/6 193/483/6
f 72/484/6 114/485/6 145/486/6 73/487/6
f 115/488/6 151/489/6 154/490/6 148/491/6
f 113/492/6 116/493/6 147/494/6 146/495/6
g node_0_0_0.005_node_0_0_0.005_ladder
usemtl ladder
f 136/496/1 135/497/1 158/498/1 185/499/1
f 140/500/1 139/501/1 102/502/1 101/503/1
f 186/504/1 163/505/1 106/506/1 105/507/1
f 142/508/1 141/509/1 165/510/1 187/511/1
f 144/512/1 143/513/1 110/514/1 109/515/1
f 188/516/1 168/517/1 112/518/1 111/519/1
f 201/520/2 149/521/2 126/522/2 125/523/2
f 96/524/2 95/525/2 130/526/2 129/527/2
f 100/528/2 99/529/2 156/530/2 202/531/2
f 203/532/2 157/533/2 134/534/2 133/535/2
f 104/536/2 103/537/2 138/538/2 137/539/2
f 108/540/2 107/541/2 164/542/2 204/543/2
f 202/544/3 156/545/3 163/546/3 186/547/3
f 204/548/3 164/549/3 168/550/3 188/551/3
f 185/552/4 158/553/4 149/554/4 201/555/4
f 187/556/4 165/557/4 157/558/4 203/559/4
f 202/560/5 186/561/5 185/562/5 201/563/5
f 204/564/5 188/565/5 187/566/5 203/567/5
f 152/568/6 159/569/6 162/570/6 153/571/6
f 160/572/6 166/573/6 167/574/6 161/575/6
